<svg width="21" height="20" viewBox="0 0 21 20" fill="none" xmlns="http://www.w3.org/2000/svg">
<path d="M3.65591 10.5828H1.56501C0.895412 10.5828 0.353027 11.0655 0.353027 11.6591V18.6737C0.353027 19.2673 0.896569 19.75 1.56501 19.75H3.65706C4.32782 19.75 4.8702 19.2673 4.8702 18.6726V11.6591C4.86989 11.3734 4.74198 11.0996 4.51454 10.8976C4.2871 10.6956 3.97871 10.582 3.65706 10.5817M11.3985 0.75H9.30758C8.63683 0.75 8.09444 1.2327 8.09444 1.82735V18.6716C8.09444 19.2673 8.63798 19.749 9.30874 19.749H11.3985C12.0692 19.749 12.6116 19.2663 12.6116 18.6716V1.82838C12.6116 1.2327 12.0681 0.751027 11.3973 0.751027M19.141 6.06692H17.049C16.3782 6.06692 15.8359 6.54962 15.8359 7.1453V18.6716C15.8359 19.2673 16.3794 19.749 17.049 19.749H19.1399C19.4615 19.7487 19.7699 19.6351 19.9974 19.4331C20.2248 19.2311 20.3527 18.9573 20.353 18.6716V7.14427C20.353 6.54859 19.8095 6.06692 19.1387 6.06692" fill="#7B8188"/>
</svg>
