<svg width="20" height="20" viewBox="0 0 20 20" fill="none" xmlns="http://www.w3.org/2000/svg">
<path d="M19.2655 9.98215C19.2782 11.206 19.0482 12.4201 18.5886 13.5545C18.1291 14.6888 17.4492 15.7208 16.5883 16.5907C15.7274 17.4605 14.7026 18.1511 13.5731 18.6224C12.4436 19.0937 11.2319 19.3364 10.008 19.3364C8.78413 19.3364 7.5724 19.0937 6.44291 18.6224C5.31341 18.1511 4.28858 17.4605 3.42768 16.5907C2.56677 15.7208 1.8869 14.6888 1.42737 13.5545C0.967839 12.4201 0.73778 11.206 0.7505 9.98215C0.73778 8.75834 0.967839 7.54415 1.42737 6.40982C1.8869 5.2755 2.56677 4.24354 3.42768 3.37364C4.28858 2.50375 5.31341 1.81318 6.44291 1.34189C7.5724 0.870594 8.78413 0.62793 10.008 0.62793C11.2319 0.62793 12.4436 0.870594 13.5731 1.34189C14.7026 1.81318 15.7274 2.50375 16.5883 3.37364C17.4492 4.24354 18.1291 5.2755 18.5886 6.40982C19.0482 7.54415 19.2782 8.75834 19.2655 9.98215ZM2.5095 5.23715L4.3795 6.80715L5.6325 5.31215C5.9195 4.97015 5.9645 4.63115 5.6625 4.33915C5.5605 4.23872 5.42689 4.17668 5.28435 4.16355C5.14181 4.15043 4.99912 4.18703 4.8805 4.26715C4.92336 4.15012 4.92442 4.02187 4.8835 3.90415C4.7695 3.69415 4.7235 3.65715 4.6365 3.58415L4.6165 3.56715C4.2895 3.29315 3.9455 3.52715 3.6995 3.82115L2.5095 5.23715ZM10.9605 1.96515V3.66715H11.4475V1.23015H10.7155L10.0515 2.96615L9.3875 1.23015H8.6555V3.66715H9.1435V1.96515L9.7855 3.66715H10.3185L10.9605 1.96515ZM15.9585 5.98115L16.8775 4.68015L16.4725 4.18015L15.0095 4.80815L15.9675 3.55615L15.5905 3.09115L14.0605 5.05715L14.5085 5.60515L15.9525 5.01015L15.9575 5.01615L15.0765 6.30615L15.5185 6.85615L17.7595 5.77015L17.3825 5.30415L15.9585 5.98115ZM10.0085 15.8961C10.7851 15.8961 11.5542 15.7432 12.2717 15.446C12.9892 15.1488 13.6412 14.7131 14.1903 14.164C14.7395 13.6148 15.1751 12.9629 15.4723 12.2453C15.7695 11.5278 15.9225 10.7588 15.9225 9.98215C15.9225 9.20551 15.7695 8.43648 15.4723 7.71896C15.1751 7.00144 14.7395 6.34948 14.1903 5.80032C13.6412 5.25115 12.9892 4.81553 12.2717 4.51832C11.5542 4.22112 10.7851 4.06815 10.0085 4.06815C8.44001 4.06815 6.93576 4.69123 5.82667 5.80032C4.71758 6.90941 4.0945 8.41366 4.0945 9.98215C4.0945 11.5506 4.71758 13.0549 5.82667 14.164C6.93576 15.2731 8.44001 15.8961 10.0085 15.8961Z" fill="black"/>
</svg>
