<svg width="25" height="20" viewBox="0 0 25 20" fill="none" xmlns="http://www.w3.org/2000/svg">
<mask id="mask0_1418_274" style="mask-type:luminance" maskUnits="userSpaceOnUse" x="0" y="0" width="25" height="20">
<path d="M15.0001 0H10.0002C5.2865 0 2.92903 -1.4901e-07 1.46529 1.46498C0.410307 2.51872 0.115311 4.0362 0.0328121 6.56242H24.9675C24.885 4.0362 24.59 2.51872 23.535 1.46498C22.0713 -1.4901e-07 19.7138 0 15.0001 0ZM10.0002 19.9998H15.0001C19.7138 19.9998 22.0713 19.9997 23.535 18.5348C24.9987 17.0698 25 14.7136 25 9.99988C25 9.44822 24.9992 8.92739 24.9975 8.43739H0.00281256C0.000312595 8.92739 -0.000520845 9.44822 0.000312478 9.99988C0.000312478 14.7136 0.000312324 17.071 1.46529 18.5348C2.93028 19.9985 5.2865 19.9998 10.0002 19.9998Z" fill="white"/>
<path fill-rule="evenodd" clip-rule="evenodd" d="M4.0625 15C4.0625 14.7514 4.16127 14.5129 4.33708 14.3371C4.5129 14.1613 4.75135 14.0625 4.99999 14.0625H9.99993C10.2486 14.0625 10.487 14.1613 10.6628 14.3371C10.8386 14.5129 10.9374 14.7514 10.9374 15C10.9374 15.2486 10.8386 15.4871 10.6628 15.6629C10.487 15.8387 10.2486 15.9375 9.99993 15.9375H4.99999C4.75135 15.9375 4.5129 15.8387 4.33708 15.6629C4.16127 15.4871 4.0625 15.2486 4.0625 15ZM12.1874 15C12.1874 14.7514 12.2862 14.5129 12.462 14.3371C12.6378 14.1613 12.8762 14.0625 13.1249 14.0625H14.9999C15.2485 14.0625 15.487 14.1613 15.6628 14.3371C15.8386 14.5129 15.9374 14.7514 15.9374 15C15.9374 15.2486 15.8386 15.4871 15.6628 15.6629C15.487 15.8387 15.2485 15.9375 14.9999 15.9375H13.1249C12.8762 15.9375 12.6378 15.8387 12.462 15.6629C12.2862 15.4871 12.1874 15.2486 12.1874 15Z" fill="black"/>
</mask>
<g mask="url(#mask0_1418_274)">
<path d="M-2.5 -5H27.4996V24.9996H-2.5V-5Z" fill="black"/>
</g>
</svg>
