<svg width="14" height="20" viewBox="0 0 14 20" fill="none" xmlns="http://www.w3.org/2000/svg">
<path d="M0.838867 9.47003V11.588C0.838776 12.1443 0.915068 12.6951 1.06339 13.209C1.21171 13.7229 1.42915 14.1899 1.70329 14.5833C1.97743 14.9766 2.30291 15.2887 2.66113 15.5016C3.01935 15.7145 3.40329 15.824 3.79103 15.824H12.6475M0.838867 4.17603H9.69536C10.0832 4.17589 10.4672 4.28537 10.8255 4.4982C11.1838 4.71104 11.5093 5.02305 11.7836 5.41643C12.0578 5.8098 12.2753 6.27683 12.4236 6.79082C12.572 7.30482 12.6483 7.85571 12.6482 8.41202V10.529" stroke="white" stroke-linecap="round" stroke-linejoin="round"/>
<path d="M10.4333 12.647L12.6479 15.823L10.4333 19M3.05254 7.353L0.837891 4.176L3.05254 1" stroke="white" stroke-linecap="round" stroke-linejoin="round"/>
</svg>
