<svg width="15" height="18" viewBox="0 0 15 18" fill="none" xmlns="http://www.w3.org/2000/svg">
<path fill-rule="evenodd" clip-rule="evenodd" d="M7.43654 16.8736C7.43654 16.326 6.99261 15.882 6.445 15.882C5.89739 15.882 5.45346 16.326 5.45346 16.8736V17C5.45346 17.5523 5.00575 18 4.45346 18H3.97462C3.42233 18 2.97462 17.5523 2.97462 17V16.2055C2.97462 16.0269 2.82979 15.882 2.65113 15.882H2.32997C2.32868 15.882 2.32764 15.881 2.32764 15.8797C2.32764 15.8784 2.32659 15.8774 2.3253 15.8774H1C0.447715 15.8774 0 15.4296 0 14.8774V14.7547C0 14.2024 0.447715 13.7547 1 13.7547H1.32764C1.87992 13.7547 2.32764 13.307 2.32764 12.7547V5.24528C2.32764 4.693 1.87992 4.24528 1.32764 4.24528H1C0.447715 4.24528 0 3.79757 0 3.24528V3.12264C0 2.57036 0.447715 2.12264 1 2.12264H1.97462C2.5269 2.12264 2.97462 1.67493 2.97462 1.12264V1C2.97462 0.447715 3.42233 0 3.97462 0H4.45346C5.00575 0 5.45346 0.447715 5.45346 1V1.1311C5.45346 1.67871 5.89739 2.12264 6.445 2.12264C6.99261 2.12264 7.43654 1.67871 7.43654 1.1311V1C7.43654 0.447715 7.88426 0 8.43654 0H8.91539C9.46767 0 9.91539 0.447715 9.91539 1V1.52772C9.91539 1.85629 9.64903 2.12264 9.32046 2.12264C12.3387 2.12264 14.2316 3.44802 14.2316 5.55538C14.2316 7.05116 12.9367 8.30258 11.2506 8.53491C11.2297 8.5378 11.2138 8.55566 11.2138 8.57682C11.2138 8.59899 11.2312 8.61735 11.2533 8.61896C13.4155 8.7758 15 10.1339 15 11.9441C15 14.2875 13.0085 15.7831 9.77162 15.8774C9.85102 15.8774 9.91539 15.9417 9.91539 16.0211V17C9.91539 17.5523 9.46767 18 8.91539 18H8.43654C7.88426 18 7.43654 17.5523 7.43654 17V16.8736ZM6.69094 4.26821C6.13865 4.26821 5.69094 4.71592 5.69094 5.26821V6.84401C5.69094 7.39629 6.13865 7.84401 6.69094 7.84401H8.10732C9.90002 7.84401 10.9243 7.16689 10.9243 6.00368C10.9243 4.89736 10.022 4.26821 8.45237 4.26821H6.69094ZM5.69106 12.7363C5.69099 13.2887 6.13873 13.7365 6.69106 13.7365H8.58623C10.5237 13.7365 11.5703 13.0309 11.5703 11.7153C11.5703 10.4277 10.49 9.74123 8.5079 9.74123H6.69131C6.13907 9.74123 5.69138 10.1889 5.69131 10.7411L5.69106 12.7363Z" fill="white"/>
</svg>
