<svg width="32" height="30" viewBox="0 0 32 30" fill="none" xmlns="http://www.w3.org/2000/svg">
<path d="M31.7535 13.65H16.6821V17.745H27.3816C26.8392 23.46 21.6292 25.905 16.6985 25.905C10.4037 25.905 4.88136 21.375 4.88136 15C4.88136 8.85 10.1407 4.095 16.7149 4.095C21.7935 4.095 24.7684 7.05 24.7684 7.05L27.8911 4.08C27.8911 4.08 23.8808 0 16.5506 0C7.2152 0 0 7.2 0 15C0 22.575 6.78788 30 16.7971 30C25.5901 30 32 24.495 32 16.365C32 14.64 31.7535 13.65 31.7535 13.65Z" fill="#1F1F2E"/>
</svg>
