<svg width="25" height="27" viewBox="0 0 25 27" fill="none" xmlns="http://www.w3.org/2000/svg">
<path d="M3 27C1.34315 27 0 25.6569 0 24V10.5367C0 9.57184 0.464069 8.66587 1.24709 8.1021L10.7471 1.2621C11.7941 0.508235 13.2059 0.508236 14.2529 1.2621L23.7529 8.1021C24.5359 8.66587 25 9.57184 25 10.5367V24C25 25.6569 23.6569 27 22 27H18.625C16.9681 27 15.625 25.6569 15.625 24V19.5C15.625 17.8431 14.2819 16.5 12.625 16.5H12.375C10.7181 16.5 9.375 17.8431 9.375 19.5V24C9.375 25.6569 8.03185 27 6.375 27H3Z" fill="#3A61B1"/>
</svg>
