<svg width="18" height="24" viewBox="0 0 18 24" fill="none" xmlns="http://www.w3.org/2000/svg">
<path fill-rule="evenodd" clip-rule="evenodd" d="M6.39 22.6635C7.2039 23.0567 8.09611 23.2609 9 23.2609C9.9039 23.2609 10.7961 23.0567 11.61 22.6635L11.805 22.569C12.3127 22.3237 12.741 21.9403 13.0408 21.4628C13.3406 20.9852 13.4998 20.4329 13.5 19.869V19.167C13.5 17.139 14.664 15.3315 15.81 13.6575C16.6576 12.4181 17.1508 10.9709 17.2365 9.47181C17.3223 7.97276 16.9973 6.47873 16.2966 5.15075C15.596 3.82276 14.5461 2.71117 13.2603 1.93579C11.9745 1.16041 10.5015 0.750641 9 0.750641C7.4985 0.750641 6.02547 1.16041 4.73967 1.93579C3.45387 2.71117 2.40405 3.82276 1.70337 5.15075C1.00269 6.47873 0.677715 7.97276 0.763468 9.47181C0.849221 10.9709 1.34245 12.4181 2.19 13.6575C3.336 15.3315 4.5 17.139 4.5 19.1685V19.869C4.49996 20.4331 4.65897 20.9858 4.95879 21.4636C5.2586 21.9415 5.68706 22.3251 6.195 22.5705L6.39 22.6635ZM10.632 20.6385L10.827 20.5425C10.9538 20.4811 11.0607 20.3852 11.1355 20.2658C11.2103 20.1464 11.25 20.0084 11.25 19.8675V19.167C11.25 18.912 11.2625 18.662 11.2875 18.417C9.79506 18.8626 8.20495 18.8626 6.7125 18.417C6.7365 18.662 6.749 18.912 6.75 19.167V19.8675C6.74999 20.0084 6.78967 20.1464 6.86448 20.2658C6.93929 20.3852 7.04621 20.4811 7.173 20.5425L7.368 20.637C7.87688 20.883 8.43479 21.0108 9 21.0108C9.56522 21.0108 10.1231 20.8845 10.632 20.6385ZM4.047 12.3855C4.638 13.2495 5.3835 14.3385 5.9415 15.6075C6.85506 16.1906 7.91624 16.5003 9 16.5003C10.0838 16.5003 11.1449 16.1906 12.0585 15.6075C12.6165 14.3385 13.362 13.2495 13.9545 12.3855C14.5705 11.4841 14.9289 10.4316 14.991 9.34151C15.0531 8.25143 14.8166 7.16506 14.307 6.19947C13.7973 5.23387 13.0338 4.42565 12.0988 3.86189C11.1637 3.29812 10.0926 3.00019 9.00075 3.00019C7.90891 3.00019 6.83776 3.29812 5.90272 3.86189C4.96768 4.42565 4.2042 5.23387 3.69454 6.19947C3.18488 7.16506 2.94836 8.25143 3.01047 9.34151C3.07258 10.4316 3.43096 11.4841 4.047 12.3855Z" fill="#1E1E1E" fill-opacity="0.5"/>
<path d="M9 5.25C8.70163 5.25 8.41548 5.36853 8.2045 5.5795C7.99353 5.79048 7.875 6.07663 7.875 6.375C7.875 6.67337 7.99353 6.95952 8.2045 7.1705C8.41548 7.38147 8.70163 7.5 9 7.5C9.39782 7.5 9.77936 7.65804 10.0607 7.93934C10.342 8.22064 10.5 8.60218 10.5 9C10.5 9.29837 10.6185 9.58452 10.8295 9.7955C11.0405 10.0065 11.3266 10.125 11.625 10.125C11.9234 10.125 12.2095 10.0065 12.4205 9.7955C12.6315 9.58452 12.75 9.29837 12.75 9C12.75 8.00544 12.3549 7.05161 11.6517 6.34835C10.9484 5.64509 9.99456 5.25 9 5.25Z" fill="#1E1E1E" fill-opacity="0.5"/>
</svg>
