<svg width="32" height="28" viewBox="0 0 32 28" fill="none" xmlns="http://www.w3.org/2000/svg">
<path d="M20.6945 12.2442L17.5137 17.3C17.3835 17.4803 17.2253 17.6386 17.0449 17.7687C16.6095 18.0724 16.0719 18.1922 15.5488 18.102C15.0256 18.0118 14.5591 17.719 14.2506 17.287C13.942 16.855 13.8163 16.3188 13.9006 15.7946C13.985 15.2705 14.2727 14.8008 14.7012 14.4875L19.757 11.3067C19.8719 11.2265 20.0086 11.1836 20.1487 11.1836C20.2888 11.1836 20.4255 11.2265 20.5405 11.3067C20.6848 11.4109 20.782 11.568 20.8109 11.7436C20.8397 11.9193 20.7979 12.0992 20.6945 12.2442Z" fill="#163300"/>
<path d="M16 1C7.71653 1 1.00001 7.70982 1.00001 15.9933C0.994933 19.6582 2.33665 23.1971 4.7701 25.9375C4.84376 26.0178 4.91072 26.0982 4.98439 26.1719C5.14285 26.3434 5.33521 26.4802 5.54929 26.5735C5.76337 26.6669 5.9945 26.7148 6.22804 26.7141C6.46159 26.7135 6.69245 26.6644 6.90603 26.5699C7.1196 26.4754 7.31122 26.3376 7.46876 26.1652C8.55459 24.9851 9.8734 24.0432 11.3418 23.3989C12.8103 22.7546 14.3964 22.422 16 22.422C17.6036 22.422 19.1897 22.7546 20.6582 23.3989C22.1266 24.0432 23.4454 24.9851 24.5312 26.1652C24.6888 26.3376 24.8804 26.4754 25.094 26.5699C25.3075 26.6644 25.5384 26.7135 25.772 26.7141C26.0055 26.7148 26.2366 26.6669 26.4507 26.5735C26.6648 26.4802 26.8572 26.3434 27.0156 26.1719L27.2299 25.9375C29.6634 23.1971 31.0051 19.6582 31 15.9933C31 7.70982 24.2835 1 16 1Z" stroke="#163300" stroke-linecap="round" stroke-linejoin="round"/>
<path d="M15.9999 5.28516V7.42801M26.7142 15.9994H24.5713M7.4285 15.9994H5.28564M9.93899 9.9385L8.42359 8.4231M22.0609 9.9385L23.5763 8.4231" stroke="#163300" stroke-miterlimit="10" stroke-linecap="round"/>
</svg>
