<svg width="32" height="21" viewBox="0 0 32 21" fill="none" xmlns="http://www.w3.org/2000/svg">
<path d="M15.1242 18.7158C15.2024 18.7823 15.2829 18.8479 15.3655 18.9127C13.7431 20.0037 11.8376 20.5845 9.88927 20.582C8.34628 20.582 6.8247 20.2168 5.44624 19.5157C4.06779 18.8145 2.87071 17.7969 1.95075 16.5442C1.03079 15.2915 0.413489 13.8384 0.148213 12.3013C-0.117063 10.7641 -0.0229488 9.18549 0.423028 7.69169C0.869005 6.1979 1.65447 4.83037 2.71659 3.6985C3.77871 2.56663 5.08802 1.70182 6.53979 1.17324C7.99156 0.644671 9.5455 0.467002 11.0773 0.654448C12.6091 0.841894 14.0763 1.38925 15.3615 2.25274C15.2815 2.32151 15.2015 2.38489 15.1415 2.45501C13.9863 3.4627 13.0594 4.71041 12.4241 6.11311C11.7888 7.51581 11.4599 9.04054 11.46 10.5834C11.4607 12.125 11.7881 13.6485 12.4202 15.0513C13.0522 16.4542 13.9743 17.7037 15.1242 18.7158ZM22.1125 0.583381C20.0857 0.583381 18.2043 1.19827 16.6389 2.25274C16.7189 2.32151 16.7989 2.38489 16.8589 2.45501C18.0142 3.4627 18.9411 4.71041 19.5764 6.11311C20.2117 7.51581 20.5405 9.04054 20.5404 10.5834C20.5397 12.125 20.2123 13.6485 19.5803 15.0513C18.9482 16.4542 18.0262 17.7037 16.8763 18.7158C16.798 18.7823 16.7176 18.8479 16.6349 18.9127C18.2573 20.0037 20.1628 20.5845 22.1112 20.582C23.4098 20.5826 24.6959 20.3243 25.8958 19.8221C27.0958 19.3198 28.1861 18.5834 29.1046 17.6548C30.023 16.7263 30.7515 15.6239 31.2485 14.4105C31.7454 13.1972 32.0012 11.8967 32.001 10.5834C32.0006 7.93132 30.9587 5.38799 29.1043 3.51271C27.25 1.63742 24.735 0.583739 22.1125 0.583381ZM16.0002 2.72739C15.8722 2.82718 15.7478 2.93101 15.6269 3.03888C14.5582 3.97633 13.7014 5.1352 13.1145 6.43692C12.5276 7.73863 12.2244 9.15274 12.2254 10.5834C12.2232 12.097 12.562 13.5912 13.216 14.9526C13.8701 16.3141 14.8223 17.5069 16.0002 18.4407C16.1282 18.34 16.2527 18.2357 16.3736 18.1279C17.4422 17.1904 18.299 16.0315 18.8859 14.7298C19.4728 13.4281 19.776 12.014 19.7751 10.5834C19.7771 9.07 19.4382 7.57604 18.7841 6.21485C18.1301 4.85367 17.178 3.66102 16.0002 2.72739Z" fill="white"/>
</svg>
