<svg width="21" height="17" viewBox="0 0 21 17" fill="none" xmlns="http://www.w3.org/2000/svg">
<path d="M1.45997 0.75C1.09141 0.75 0.737947 0.89532 0.477335 1.15399C0.216723 1.41266 0.0703125 1.76349 0.0703125 2.12931C0.0703125 2.49513 0.216723 2.84596 0.477335 3.10463C0.737947 3.3633 1.09141 3.50862 1.45997 3.50862H1.47109C1.83965 3.50862 2.19312 3.3633 2.45373 3.10463C2.71434 2.84596 2.86075 2.49513 2.86075 2.12931C2.86075 1.76349 2.71434 1.41266 2.45373 1.15399C2.19312 0.89532 1.83965 0.75 1.47109 0.75H1.45997ZM5.89577 1.30172C5.67464 1.30172 5.46256 1.38892 5.30619 1.54412C5.14982 1.69932 5.06197 1.90982 5.06197 2.12931C5.06197 2.3488 5.14982 2.5593 5.30619 2.7145C5.46256 2.8697 5.67464 2.9569 5.89577 2.9569H19.2365C19.4577 2.9569 19.6697 2.8697 19.8261 2.7145C19.9825 2.5593 20.0703 2.3488 20.0703 2.12931C20.0703 1.90982 19.9825 1.69932 19.8261 1.54412C19.6697 1.38892 19.4577 1.30172 19.2365 1.30172H5.89577ZM5.89577 14.5431C5.67464 14.5431 5.46256 14.6303 5.30619 14.7855C5.14982 14.9407 5.06197 15.1512 5.06197 15.3707C5.06197 15.5902 5.14982 15.8007 5.30619 15.9559C5.46256 16.1111 5.67464 16.1983 5.89577 16.1983H19.2365C19.4577 16.1983 19.6697 16.1111 19.8261 15.9559C19.9825 15.8007 20.0703 15.5902 20.0703 15.3707C20.0703 15.1512 19.9825 14.9407 19.8261 14.7855C19.6697 14.6303 19.4577 14.5431 19.2365 14.5431H5.89577ZM5.06197 8.75C5.06197 8.53051 5.14982 8.32001 5.30619 8.16481C5.46256 8.00961 5.67464 7.92241 5.89577 7.92241H19.2365C19.4577 7.92241 19.6697 8.00961 19.8261 8.16481C19.9825 8.32001 20.0703 8.53051 20.0703 8.75C20.0703 8.96949 19.9825 9.17999 19.8261 9.33519C19.6697 9.49039 19.4577 9.57759 19.2365 9.57759H5.89577C5.67464 9.57759 5.46256 9.49039 5.30619 9.33519C5.14982 9.17999 5.06197 8.96949 5.06197 8.75ZM0.0703125 8.75C0.0703125 7.98862 0.692881 7.37069 1.45997 7.37069H1.47109C1.83965 7.37069 2.19312 7.51601 2.45373 7.77468C2.71434 8.03335 2.86075 8.38418 2.86075 8.75C2.86075 9.11582 2.71434 9.46665 2.45373 9.72532C2.19312 9.98399 1.83965 10.1293 1.47109 10.1293H1.45997C0.692881 10.1293 0.0703125 9.51138 0.0703125 8.75ZM1.45997 13.9914C1.09141 13.9914 0.737947 14.1367 0.477335 14.3954C0.216723 14.654 0.0703125 15.0049 0.0703125 15.3707C0.0703125 15.7365 0.216723 16.0873 0.477335 16.346C0.737947 16.6047 1.09141 16.75 1.45997 16.75H1.47109C1.83965 16.75 2.19312 16.6047 2.45373 16.346C2.71434 16.0873 2.86075 15.7365 2.86075 15.3707C2.86075 15.0049 2.71434 14.654 2.45373 14.3954C2.19312 14.1367 1.83965 13.9914 1.47109 13.9914H1.45997Z" fill="black"/>
</svg>
