<svg width="20" height="22" viewBox="0 0 20 22" fill="none" xmlns="http://www.w3.org/2000/svg">
<path fill-rule="evenodd" clip-rule="evenodd" d="M14.4 4.8H9.6V7.2H14.4V4.8ZM14.4 8.4H9.6V9.6H14.4V8.4ZM8.4 4.8H4.8V9.6H8.4V4.8ZM8.4 12H14.4V10.8H8.4V12ZM12 14.4H14.4V13.2H12V14.4ZM14.4 15.6H4.8V16.8H14.4V15.6ZM10.8 13.2H4.8V14.4H10.8V13.2ZM7.2 10.8H4.8V12H7.2V10.8ZM18 0H1.2C0.88174 0 0.576515 0.126428 0.351472 0.351472C0.126428 0.576515 0 0.88174 0 1.2V20.4C0 20.7183 0.126428 21.0235 0.351472 21.2485C0.576515 21.4736 0.88174 21.6 1.2 21.6H18C18.3183 21.6 18.6235 21.4736 18.8485 21.2485C19.0736 21.0235 19.2 20.7183 19.2 20.4V1.2C19.2 0.88174 19.0736 0.576515 18.8485 0.351472C18.6235 0.126428 18.3183 0 18 0ZM16.8 19.2H2.4V2.4H16.8V19.2Z" fill="#1E1E1E" fill-opacity="0.5"/>
</svg>
