<svg width="30" height="30" viewBox="0 0 30 30" fill="none" xmlns="http://www.w3.org/2000/svg">
<path d="M15.7895 0H17.3684C20.7185 0 23.9314 1.33082 26.3003 3.6997C28.6692 6.06858 30 9.28148 30 12.6316V14.2105H15.7895V0ZM17.3684 12.6316H28.4211C28.4211 9.70024 27.2566 6.88896 25.1838 4.81619C23.111 2.74342 20.2998 1.57895 17.3684 1.57895V12.6316ZM12.6316 17.3684H25.2632C25.2632 20.7185 23.9323 23.9314 21.5635 26.3003C19.1946 28.6692 15.9817 30 12.6316 30C9.28148 30 6.06858 28.6692 3.6997 26.3003C1.33082 23.9314 0 20.7185 0 17.3684C0 14.0183 1.33082 10.8054 3.6997 8.43655C6.06858 6.06767 9.28148 4.73684 12.6316 4.73684V17.3684ZM11.0526 18.9474V6.42632C5.7 7.2 1.57895 11.7947 1.57895 17.3684C1.57895 20.2998 2.74342 23.111 4.81619 25.1838C6.88896 27.2566 9.70024 28.4211 12.6316 28.4211C18.2053 28.4211 22.8 24.3 23.5737 18.9474H11.0526Z" fill="#1E1E1E" fill-opacity="0.5"/>
</svg>
