<svg width="19" height="19" viewBox="0 0 19 19" fill="none" xmlns="http://www.w3.org/2000/svg">
<path d="M10 0H11C13.1217 0 15.1566 0.842855 16.6569 2.34315C18.1571 3.84344 19 5.87827 19 8V9H10V0ZM11 8H18C18 6.14348 17.2625 4.36301 15.9497 3.05025C14.637 1.7375 12.8565 1 11 1V8ZM8 11H16C16 13.1217 15.1571 15.1566 13.6569 16.6569C12.1566 18.1571 10.1217 19 8 19C5.87827 19 3.84344 18.1571 2.34315 16.6569C0.842855 15.1566 0 13.1217 0 11C0 8.87827 0.842855 6.84344 2.34315 5.34315C3.84344 3.84285 5.87827 3 8 3V11ZM7 12V4.07C3.61 4.56 1 7.47 1 11C1 12.8565 1.7375 14.637 3.05025 15.9497C4.36301 17.2625 6.14348 18 8 18C11.53 18 14.44 15.39 14.93 12H7Z" fill="#1E1E1E" fill-opacity="0.5"/>
</svg>
