<svg width="17" height="22" viewBox="0 0 17 22" fill="none" xmlns="http://www.w3.org/2000/svg">
<path d="M8.69042 0.799973C9.25672 0.799973 9.70166 1.21959 9.70166 1.75365L9.70166 18.9199C9.70166 19.4539 9.25672 19.8736 8.69042 19.8736C8.12413 19.8736 7.67919 19.4539 7.67919 18.9199L7.67919 1.75365C7.67919 1.21959 8.12413 0.799973 8.69042 0.799973Z" fill="#228556"/>
<path d="M1.61153 13.1978C1.74415 13.1963 1.87565 13.221 1.99756 13.2702C2.11947 13.3195 2.2291 13.3923 2.31939 13.4839L8.69018 19.4921L15.061 13.4839C15.4655 13.1025 16.0924 13.1025 16.4969 13.4839C16.9014 13.8654 16.9014 14.4567 16.4969 14.8381L9.41827 21.5139C9.01378 21.8954 8.38681 21.8954 7.98232 21.5139L0.903663 14.8381C0.499168 14.4567 0.499168 13.8654 0.903663 13.4839C1.10591 13.2932 1.36883 13.1978 1.61153 13.1978Z" fill="#228556"/>
</svg>
