<svg width="19" height="15" viewBox="0 0 19 15" fill="none" xmlns="http://www.w3.org/2000/svg">
<path d="M11.2668 15C11.0874 15.0008 10.9097 14.9663 10.7441 14.8985C10.5785 14.8307 10.4283 14.7309 10.3022 14.6051C10.0466 14.3526 9.90307 14.0104 9.90307 13.6537C9.90307 13.2969 10.0466 12.9547 10.3022 12.7023L15.7618 7.31701L10.3022 1.93175C10.1746 1.67097 10.1356 1.37654 10.191 1.09216C10.2464 0.807774 10.3933 0.548597 10.6099 0.353097C10.8265 0.157596 11.1012 0.0361927 11.3933 0.00690462C11.6854 -0.0223834 11.9793 0.0420056 12.2313 0.190515L18.6008 6.47332C18.8564 6.72576 19 7.06794 19 7.42472C19 7.78149 18.8564 8.12368 18.6008 8.37611L12.2313 14.5512C12.11 14.6869 11.9618 14.7966 11.796 14.8738C11.6301 14.951 11.45 14.9939 11.2668 15ZM1.2575 15C0.906366 14.9735 0.579722 14.8124 0.347563 14.5512C0.12374 14.3044 0 13.9848 0 13.6537C0 13.3225 0.12374 13.003 0.347563 12.7561L5.80716 7.37086L0.347563 1.9856C0.225922 1.73437 0.186233 1.45213 0.233963 1.17772C0.281693 0.903323 0.414493 0.650265 0.614077 0.453399C0.813661 0.256533 1.07021 0.125541 1.3484 0.0784615C1.62659 0.0313817 1.91273 0.0705299 2.16743 0.190515L8.53697 6.47332C8.79257 6.72576 8.93614 7.06794 8.93614 7.42472C8.93614 7.78149 8.79257 8.12368 8.53697 8.37611L2.16743 14.5512C1.93527 14.8124 1.60863 14.9735 1.2575 15Z" fill="#B2B2B2"/>
</svg>
