<svg width="22" height="20" viewBox="0 0 22 20" fill="none" xmlns="http://www.w3.org/2000/svg">
<path d="M8.2502 19.9944L7.8502 16.7944C7.63353 16.7111 7.42953 16.6111 7.2382 16.4944C7.04686 16.3778 6.8592 16.2528 6.6752 16.1194L3.7002 17.3694L0.950195 12.6194L3.5252 10.6694C3.50853 10.5528 3.5002 10.4404 3.5002 10.3324V9.65745C3.5002 9.54878 3.50853 9.43611 3.5252 9.31945L0.950195 7.36945L3.7002 2.61945L6.6752 3.86945C6.85853 3.73611 7.0502 3.61111 7.2502 3.49445C7.4502 3.37778 7.6502 3.27778 7.8502 3.19445L8.2502 -0.0055542H13.7502L14.1502 3.19445C14.3669 3.27778 14.5712 3.37778 14.7632 3.49445C14.9552 3.61111 15.1425 3.73611 15.3252 3.86945L18.3002 2.61945L21.0502 7.36945L18.4752 9.31945C18.4919 9.43611 18.5002 9.54878 18.5002 9.65745V10.3314C18.5002 10.4401 18.4835 10.5528 18.4502 10.6694L21.0252 12.6194L18.2752 17.3694L15.3252 16.1194C15.1419 16.2528 14.9502 16.3778 14.7502 16.4944C14.5502 16.6111 14.3502 16.7111 14.1502 16.7944L13.7502 19.9944H8.2502ZM10.0002 17.9944H11.9752L12.3252 15.3444C12.8419 15.2111 13.3212 15.0154 13.7632 14.7574C14.2052 14.4994 14.6092 14.1868 14.9752 13.8194L17.4502 14.8444L18.4252 13.1444L16.2752 11.5194C16.3585 11.2861 16.4169 11.0404 16.4502 10.7824C16.4835 10.5244 16.5002 10.2618 16.5002 9.99445C16.5002 9.72711 16.4835 9.46478 16.4502 9.20745C16.4169 8.95011 16.3585 8.70411 16.2752 8.46945L18.4252 6.84445L17.4502 5.14445L14.9752 6.19445C14.6085 5.81111 14.2045 5.49045 13.7632 5.23245C13.3219 4.97445 12.8425 4.77845 12.3252 4.64445L12.0002 1.99445H10.0252L9.6752 4.64445C9.15853 4.77778 8.67953 4.97378 8.2382 5.23245C7.79686 5.49111 7.39253 5.80345 7.0252 6.16945L4.5502 5.14445L3.5752 6.84445L5.72519 8.44445C5.64186 8.69445 5.58353 8.94445 5.5502 9.19445C5.51686 9.44445 5.5002 9.71111 5.5002 9.99445C5.5002 10.2611 5.51686 10.5194 5.5502 10.7694C5.58353 11.0194 5.64186 11.2694 5.72519 11.5194L3.5752 13.1444L4.5502 14.8444L7.0252 13.7944C7.39186 14.1778 7.7962 14.4988 8.2382 14.7574C8.6802 15.0161 9.1592 15.2118 9.6752 15.3444L10.0002 17.9944ZM11.0502 13.4944C12.0169 13.4944 12.8419 13.1528 13.5252 12.4694C14.2085 11.7861 14.5502 10.9611 14.5502 9.99445C14.5502 9.02778 14.2085 8.20278 13.5252 7.51945C12.8419 6.83611 12.0169 6.49445 11.0502 6.49445C10.0669 6.49445 9.23753 6.83611 8.5622 7.51945C7.88686 8.20278 7.54953 9.02778 7.5502 9.99445C7.55086 10.9611 7.88853 11.7861 8.5632 12.4694C9.23786 13.1528 10.0669 13.4944 11.0502 13.4944Z" fill="#1E1E1E" fill-opacity="0.5"/>
</svg>
