<svg width="20" height="16" viewBox="0 0 20 16" fill="none" xmlns="http://www.w3.org/2000/svg">
<path d="M0.5 13.5V2.5C0.5 1.4 1.4 0.5 2.5 0.5H17.5C18.6 0.5 19.5 1.4 19.5 2.5V13.5C19.5 14.6 18.6 15.5 17.5 15.5H2.5C1.4 15.5 0.5 14.6 0.5 13.5Z" fill="#D9B65C"/>
<path d="M19.5 6.5V5.5H13.5C12.95 5.5 12.5 5.05 12.5 4.5C12.5 3.95 12.95 3.5 13.5 3.5H14V2.5H13.5C12.4 2.5 11.5 3.4 11.5 4.5C11.5 5.6 12.4 6.5 13.5 6.5H15V9.5H13.5C12.1 9.5 11 10.6 11 12C11 13.4 12.1 14.5 13.5 14.5H14.5V13.5H13.5C12.65 13.5 12 12.85 12 12C12 11.15 12.65 10.5 13.5 10.5H19.5V9.5H16V6.5H19.5ZM6.5 9.5H5V6.5H6.5C7.6 6.5 8.5 5.6 8.5 4.5C8.5 3.4 7.6 2.5 6.5 2.5H5V3.5H6.5C7.05 3.5 7.5 3.95 7.5 4.5C7.5 5.05 7.05 5.5 6.5 5.5H0.5V6.5H4V9.5H0.5V10.5H6.5C7.35 10.5 8 11.15 8 12C8 12.85 7.35 13.5 6.5 13.5H5.5V14.5H6.5C7.9 14.5 9 13.4 9 12C9 10.6 7.9 9.5 6.5 9.5Z" fill="#454545"/>
</svg>
