<svg width="30" height="30" viewBox="0 0 30 30" fill="none" xmlns="http://www.w3.org/2000/svg">
<path d="M15 6C14.6022 6 14.2206 6.15804 13.9393 6.43934C13.658 6.72064 13.5 7.10218 13.5 7.5V22.5C13.5 22.8978 13.658 23.2794 13.9393 23.5607C14.2206 23.842 14.6022 24 15 24C15.3978 24 15.7794 23.842 16.0607 23.5607C16.342 23.2794 16.5 22.8978 16.5 22.5V7.5C16.5 7.10218 16.342 6.72064 16.0607 6.43934C15.7794 6.15804 15.3978 6 15 6ZM7.5 15C7.10218 15 6.72064 15.158 6.43934 15.4393C6.15804 15.7206 6 16.1022 6 16.5V22.5C6 22.8978 6.15804 23.2794 6.43934 23.5607C6.72064 23.842 7.10218 24 7.5 24C7.89782 24 8.27936 23.842 8.56066 23.5607C8.84196 23.2794 9 22.8978 9 22.5V16.5C9 16.1022 8.84196 15.7206 8.56066 15.4393C8.27936 15.158 7.89782 15 7.5 15ZM22.5 12C22.1022 12 21.7206 12.158 21.4393 12.4393C21.158 12.7206 21 13.1022 21 13.5V22.5C21 22.8978 21.158 23.2794 21.4393 23.5607C21.7206 23.842 22.1022 24 22.5 24C22.8978 24 23.2794 23.842 23.5607 23.5607C23.842 23.2794 24 22.8978 24 22.5V13.5C24 13.1022 23.842 12.7206 23.5607 12.4393C23.2794 12.158 22.8978 12 22.5 12ZM25.5 0H4.5C3.30653 0 2.16193 0.474106 1.31802 1.31802C0.474106 2.16193 0 3.30653 0 4.5V25.5C0 26.6935 0.474106 27.8381 1.31802 28.682C2.16193 29.5259 3.30653 30 4.5 30H25.5C26.6935 30 27.8381 29.5259 28.682 28.682C29.5259 27.8381 30 26.6935 30 25.5V4.5C30 3.30653 29.5259 2.16193 28.682 1.31802C27.8381 0.474106 26.6935 0 25.5 0ZM27 25.5C27 25.8978 26.842 26.2794 26.5607 26.5607C26.2794 26.842 25.8978 27 25.5 27H4.5C4.10218 27 3.72064 26.842 3.43934 26.5607C3.15804 26.2794 3 25.8978 3 25.5V4.5C3 4.10218 3.15804 3.72064 3.43934 3.43934C3.72064 3.15804 4.10218 3 4.5 3H25.5C25.8978 3 26.2794 3.15804 26.5607 3.43934C26.842 3.72064 27 4.10218 27 4.5V25.5Z" fill="#1E1E1E" fill-opacity="0.5"/>
</svg>
