<svg width="26" height="30" viewBox="0 0 26 30" fill="none" xmlns="http://www.w3.org/2000/svg">
<path d="M4.33334 28.9286V25.7143H1.75068C1.25523 25.7143 0.839231 25.5486 0.502676 25.2171C0.16612 24.8857 -0.00143518 24.4743 9.25927e-06 23.9828V6.03429C9.25927e-06 5.52572 0.167565 5.10715 0.502676 4.77858C0.837787 4.45001 1.25379 4.28573 1.75068 4.28573H4.33334V1.07144C4.33334 0.767157 4.43734 0.512871 4.64534 0.308586C4.85334 0.1043 5.11118 0.00144325 5.41884 1.46771e-05C5.72651 -0.00141389 5.98362 0.101443 6.19017 0.308586C6.39673 0.515729 6.50001 0.770014 6.50001 1.07144V4.28573H9.08267C9.57812 4.28573 9.99412 4.45144 10.3307 4.78287C10.6672 5.1143 10.8348 5.52572 10.8333 6.01715V23.9678C10.8333 24.4764 10.6658 24.8943 10.3307 25.2214C9.99556 25.5486 9.57956 25.7128 9.08267 25.7143H6.50001V28.9286C6.50001 29.2328 6.39601 29.4871 6.18801 29.6914C5.98001 29.8957 5.72217 29.9986 5.41451 30C5.10684 30.0014 4.84973 29.8986 4.64317 29.6914C4.43662 29.4843 4.33334 29.23 4.33334 28.9286ZM19.5 28.9286V20.1107H16.9173C16.4219 20.1107 16.0059 19.945 15.6693 19.6136C15.3342 19.2807 15.1667 18.8693 15.1667 18.3793V9.89143C15.1667 9.40001 15.3342 8.98858 15.6693 8.65715C16.0059 8.32572 16.4219 8.16001 16.9173 8.16001H19.5V1.07144C19.5 0.767157 19.604 0.512871 19.812 0.308586C20.02 0.1043 20.2778 0.00144325 20.5855 1.46771e-05C20.8932 -0.00141389 21.1503 0.101443 21.3568 0.308586C21.5634 0.515729 21.6667 0.770014 21.6667 1.07144V8.16001H24.2493C24.7462 8.16001 25.1622 8.32572 25.4973 8.65715C25.8324 8.98858 26 9.40001 26 9.89143V18.3793C26 18.8693 25.8324 19.2807 25.4973 19.6136C25.1622 19.9464 24.7462 20.1121 24.2493 20.1107H21.6667V28.9286C21.6667 29.2328 21.5627 29.4871 21.3547 29.6914C21.1467 29.8957 20.8888 29.9986 20.5812 30C20.2735 30.0014 20.0164 29.8986 19.8098 29.6914C19.6033 29.4843 19.5 29.23 19.5 28.9286Z" fill="#249226"/>
</svg>
