<svg width="30" height="30" viewBox="0 0 30 30" fill="none" xmlns="http://www.w3.org/2000/svg">
<path d="M23 2.3C20.65 0.85 17.95 0 15 0V2.3H23Z" fill="#ED4C5C"/>
<path d="M15 4.60005H25.8C24.95 3.75005 24 2.95005 23 2.30005H15V4.60005Z" fill="white"/>
<path d="M15 6.9001H27.65C27.1 6.0501 26.5 5.3001 25.85 4.6001H15V6.9001Z" fill="#ED4C5C"/>
<path d="M15 9.1999H28.85C28.5 8.3999 28.1 7.5999 27.65 6.8999H15V9.1999Z" fill="white"/>
<path d="M15 11.5H29.6C29.4 10.7 29.15 9.94995 28.85 9.19995H15V11.5Z" fill="#ED4C5C"/>
<path d="M15 13.85H29.95C29.9 13.05 29.75 12.3 29.6 11.55H15V13.85Z" fill="white"/>
<path d="M29.95 13.8501H15V15.0001H0C0 15.4001 -4.84288e-08 15.7501 0.05 16.1501H29.95C30 15.7501 30 15.4001 30 15.0001C30 14.6001 30 14.2001 29.95 13.8501Z" fill="#ED4C5C"/>
<path d="M0.399805 18.4499H29.5998C29.7998 17.6999 29.8998 16.9499 29.9498 16.1499H0.0498047C0.0998047 16.8999 0.199805 17.6999 0.399805 18.4499Z" fill="white"/>
<path d="M1.15039 20.75H28.8504C29.1504 20 29.4004 19.25 29.6004 18.45H0.400391C0.600391 19.25 0.850391 20 1.15039 20.75Z" fill="#ED4C5C"/>
<path d="M2.35039 23.05H27.6504C28.1004 22.3 28.5004 21.55 28.8504 20.75H1.15039C1.50039 21.55 1.90039 22.3 2.35039 23.05Z" fill="white"/>
<path d="M4.14961 25.35H25.8496C26.4996 24.65 27.1496 23.85 27.6496 23.05H2.34961C2.84961 23.9 3.49961 24.65 4.14961 25.35Z" fill="#ED4C5C"/>
<path d="M6.95039 27.6501H23.0504C24.1004 27.0001 25.0004 26.2001 25.8504 25.3501H4.15039C5.00039 26.2501 5.95039 27.0001 6.95039 27.6501Z" fill="white"/>
<path d="M15.0002 29.9999C17.9502 29.9999 20.7002 29.1499 23.0502 27.6499H6.9502C9.3002 29.1499 12.0502 29.9999 15.0002 29.9999Z" fill="#ED4C5C"/>
<path d="M7 2.3C5.95 2.95 5 3.75 4.15 4.6C3.45 5.3 2.85 6.1 2.35 6.9C1.9 7.65 1.45 8.4 1.15 9.2C0.85 9.95 0.6 10.7 0.4 11.5C0.2 12.25 0.1 13 0.05 13.8C-4.84288e-08 14.2 0 14.6 0 15H15V0C12.05 0 9.35 0.85 7 2.3Z" fill="#428BC1"/>
<path d="M11.5002 0.5L11.7502 1.25H12.5002L11.9002 1.75L12.1002 2.5L11.5002 2.05L10.9002 2.5L11.1002 1.75L10.5002 1.25H11.2502L11.5002 0.5ZM13.5002 3.5L13.7502 4.25H14.5002L13.9002 4.75L14.1002 5.5L13.5002 5.05L12.9002 5.5L13.1002 4.75L12.5002 4.25H13.2502L13.5002 3.5ZM9.5002 3.5L9.7502 4.25H10.5002L9.9002 4.75L10.1002 5.5L9.5002 5.05L8.9002 5.5L9.1002 4.75L8.5002 4.25H9.2502L9.5002 3.5ZM11.5002 6.5L11.7502 7.25H12.5002L11.9002 7.75L12.1002 8.5L11.5002 8.05L10.9002 8.5L11.1002 7.75L10.5002 7.25H11.2502L11.5002 6.5ZM7.5002 6.5L7.7502 7.25H8.5002L7.9002 7.75L8.1002 8.5L7.5002 8.05L6.9002 8.5L7.1002 7.75L6.5002 7.25H7.2502L7.5002 6.5ZM3.5002 6.5L3.7502 7.25H4.5002L3.9002 7.75L4.1002 8.5L3.5002 8.05L2.9002 8.5L3.1002 7.75L2.5002 7.25H3.2502L3.5002 6.5ZM13.5002 9.5L13.7502 10.25H14.5002L13.9002 10.75L14.1002 11.5L13.5002 11.05L12.9002 11.5L13.1002 10.75L12.5002 10.25H13.2502L13.5002 9.5ZM9.5002 9.5L9.7502 10.25H10.5002L9.9002 10.75L10.1002 11.5L9.5002 11.05L8.9002 11.5L9.1002 10.75L8.5002 10.25H9.2502L9.5002 9.5ZM5.5002 9.5L5.7502 10.25H6.5002L5.9002 10.75L6.10019 11.5L5.5002 11.05L4.9002 11.5L5.10019 10.75L4.5002 10.25H5.2502L5.5002 9.5ZM11.5002 12.5L11.7502 13.25H12.5002L11.9002 13.75L12.1002 14.5L11.5002 14.05L10.9002 14.5L11.1002 13.75L10.5002 13.25H11.2502L11.5002 12.5ZM7.5002 12.5L7.7502 13.25H8.5002L7.9002 13.75L8.1002 14.5L7.5002 14.05L6.9002 14.5L7.1002 13.75L6.5002 13.25H7.2502L7.5002 12.5ZM3.5002 12.5L3.7502 13.25H4.5002L3.9002 13.75L4.1002 14.5L3.5002 14.05L2.9002 14.5L3.1002 13.75L2.5002 13.25H3.2502L3.5002 12.5ZM4.9002 5.5L5.5002 5.05L6.10019 5.5L5.85019 4.75L6.4502 4.25H5.7002L5.5002 3.5L5.2502 4.25H4.5502L5.1502 4.7L4.9002 5.5ZM0.900195 11.5L1.5002 11.05L2.1002 11.5L1.8502 10.75L2.4502 10.25H1.7502L1.5002 9.5L1.2502 10.25H0.750195C0.750195 10.3 0.700195 10.35 0.700195 10.4L1.1002 10.7L0.900195 11.5Z" fill="white"/>
</svg>
