<svg width="22" height="20" viewBox="0 0 22 20" fill="none" xmlns="http://www.w3.org/2000/svg">
<path d="M9.99961 15H11.9996V12H14.9996V10H11.9996V7.00001H9.99961V10H6.99961V12H9.99961V15ZM10.9996 20C9.74961 20 8.57894 19.7627 7.48761 19.288C6.39628 18.8133 5.44628 18.1717 4.63761 17.363C3.82894 16.5543 3.18728 15.6043 2.71261 14.513C2.23794 13.4217 2.00028 12.2507 1.99961 11C1.99894 9.74934 2.23661 8.57867 2.71261 7.48801C3.18861 6.39734 3.82994 5.44734 4.63661 4.63801C5.44328 3.82867 6.39328 3.18701 7.48661 2.71301C8.57994 2.23901 9.75094 2.00134 10.9996 2.00001C12.2483 1.99867 13.4193 2.23634 14.5126 2.71301C15.6059 3.18967 16.5559 3.83134 17.3626 4.63801C18.1693 5.44467 18.8109 6.39467 19.2876 7.48801C19.7643 8.58134 20.0016 9.75201 19.9996 11C19.9976 12.248 19.7603 13.419 19.2876 14.513C18.8149 15.607 18.1733 16.557 17.3626 17.363C16.5519 18.169 15.6019 18.8107 14.5126 19.288C13.4233 19.7653 12.2523 20.0027 10.9996 20ZM4.59961 0.350006L5.99961 1.75001L1.74961 6.00001L0.349609 4.60001L4.59961 0.350006ZM17.3996 0.350006L21.6496 4.60001L20.2496 6.00001L15.9996 1.75001L17.3996 0.350006Z" fill="#B3B3B3"/>
</svg>
