<svg width="25" height="24" viewBox="0 0 25 24" fill="none" xmlns="http://www.w3.org/2000/svg">
<path fill-rule="evenodd" clip-rule="evenodd" d="M12.5 3.32444L8.67941 5.71729H16.3206L12.5 3.32444ZM12.8926 0.112537C12.7753 0.0390138 12.6394 0 12.5007 0C12.362 0 12.2262 0.0390138 12.1088 0.112537L0.645588 7.29252C0.0220588 7.68304 0.3 8.64252 1.03824 8.64252H23.9618C24.7 8.64252 24.9779 7.68304 24.3544 7.29252L12.8926 0.112537ZM0 22.5374C0 22.1495 0.154936 21.7774 0.430725 21.5032C0.706514 21.2289 1.08056 21.0748 1.47059 21.0748H23.5294C23.9194 21.0748 24.2935 21.2289 24.5693 21.5032C24.8451 21.7774 25 22.1495 25 22.5374C25 22.9253 24.8451 23.2973 24.5693 23.5716C24.2935 23.8459 23.9194 24 23.5294 24H1.47059C1.08056 24 0.706514 23.8459 0.430725 23.5716C0.154936 23.2973 0 22.9253 0 22.5374ZM3.67647 10.1051C4.06649 10.1051 4.44054 10.2592 4.71633 10.5335C4.99212 10.8078 5.14706 11.1798 5.14706 11.5678V18.8808C5.14706 19.2687 4.99212 19.6408 4.71633 19.9151C4.44054 20.1894 4.06649 20.3435 3.67647 20.3435C3.28645 20.3435 2.9124 20.1894 2.63661 19.9151C2.36082 19.6408 2.20588 19.2687 2.20588 18.8808V11.5678C2.20588 11.1798 2.36082 10.8078 2.63661 10.5335C2.9124 10.2592 3.28645 10.1051 3.67647 10.1051ZM8.08824 10.1051C8.47826 10.1051 8.85231 10.2592 9.1281 10.5335C9.40389 10.8078 9.55882 11.1798 9.55882 11.5678V18.8808C9.55882 19.2687 9.40389 19.6408 9.1281 19.9151C8.85231 20.1894 8.47826 20.3435 8.08824 20.3435C7.69821 20.3435 7.32416 20.1894 7.04837 19.9151C6.77258 19.6408 6.61765 19.2687 6.61765 18.8808V11.5678C6.61765 11.1798 6.77258 10.8078 7.04837 10.5335C7.32416 10.2592 7.69821 10.1051 8.08824 10.1051ZM12.5 10.1051C12.89 10.1051 13.2641 10.2592 13.5399 10.5335C13.8157 10.8078 13.9706 11.1798 13.9706 11.5678V18.8808C13.9706 19.2687 13.8157 19.6408 13.5399 19.9151C13.2641 20.1894 12.89 20.3435 12.5 20.3435C12.11 20.3435 11.7359 20.1894 11.4601 19.9151C11.1843 19.6408 11.0294 19.2687 11.0294 18.8808V11.5678C11.0294 11.1798 11.1843 10.8078 11.4601 10.5335C11.7359 10.2592 12.11 10.1051 12.5 10.1051ZM16.9118 10.1051C17.3018 10.1051 17.6758 10.2592 17.9516 10.5335C18.2274 10.8078 18.3824 11.1798 18.3824 11.5678V18.8808C18.3824 19.2687 18.2274 19.6408 17.9516 19.9151C17.6758 20.1894 17.3018 20.3435 16.9118 20.3435C16.5217 20.3435 16.1477 20.1894 15.8719 19.9151C15.5961 19.6408 15.4412 19.2687 15.4412 18.8808V11.5678C15.4412 11.1798 15.5961 10.8078 15.8719 10.5335C16.1477 10.2592 16.5217 10.1051 16.9118 10.1051ZM21.3235 10.1051C21.7136 10.1051 22.0876 10.2592 22.3634 10.5335C22.6392 10.8078 22.7941 11.1798 22.7941 11.5678V18.8808C22.7941 19.2687 22.6392 19.6408 22.3634 19.9151C22.0876 20.1894 21.7136 20.3435 21.3235 20.3435C20.9335 20.3435 20.5595 20.1894 20.2837 19.9151C20.0079 19.6408 19.8529 19.2687 19.8529 18.8808V11.5678C19.8529 11.1798 20.0079 10.8078 20.2837 10.5335C20.5595 10.2592 20.9335 10.1051 21.3235 10.1051Z" fill="black"/>
</svg>
