<svg width="6" height="5" viewBox="0 0 6 5" fill="none" xmlns="http://www.w3.org/2000/svg">
<path d="M4.995 1.53846C5.0449 1.90304 4.86332 2.16146 4.45025 2.3137C4.77461 2.36979 5.01718 2.47296 5.17797 2.6232C5.33877 2.77344 5.40114 2.98778 5.3651 3.26623C5.3457 3.40845 5.30065 3.53365 5.22995 3.64183C5.15926 3.75 5.06985 3.83914 4.96174 3.90925C4.85362 3.97937 4.71916 4.03796 4.55837 4.08504C4.39758 4.13211 4.22916 4.16667 4.05312 4.1887C3.87708 4.21074 3.6754 4.22576 3.44807 4.23377V5H2.80767V4.24579C2.58589 4.24579 2.41678 4.24479 2.30035 4.24279V5H1.65995V4.23377C1.61005 4.23377 1.5352 4.23327 1.4354 4.23227C1.33559 4.23127 1.25936 4.23077 1.20668 4.23077H0.375L0.503911 3.68089H0.965495C1.10411 3.68089 1.18451 3.62981 1.20668 3.52764V2.31971H1.27322C1.25658 2.31771 1.23441 2.31671 1.20668 2.31671V1.45433C1.17064 1.31811 1.04728 1.25 0.836584 1.25H0.375V0.757212L1.25658 0.760216C1.43401 0.760216 1.56847 0.759215 1.65995 0.757212V0H2.30035V0.742188C2.52767 0.738181 2.69678 0.736178 2.80767 0.736178V0H3.44807V0.757212C3.66708 0.771234 3.86114 0.79377 4.03025 0.82482C4.19936 0.855869 4.35599 0.900942 4.50015 0.960036C4.64431 1.01913 4.75867 1.09726 4.84322 1.19441C4.92777 1.29157 4.97837 1.40625 4.995 1.53846ZM4.10094 3.17608C4.10094 3.10397 4.08015 3.03986 4.03857 2.98377C3.99698 2.92768 3.9457 2.88161 3.8847 2.84555C3.82371 2.8095 3.74401 2.77895 3.6456 2.75391C3.54718 2.72887 3.45639 2.71034 3.37322 2.69832C3.29005 2.6863 3.18748 2.67728 3.0655 2.67127C2.94352 2.66526 2.84787 2.66226 2.77857 2.66226C2.70926 2.66226 2.61985 2.66326 2.51035 2.66526C2.40084 2.66727 2.335 2.66827 2.31282 2.66827V3.68389C2.335 3.68389 2.38629 3.6844 2.46668 3.6854C2.54708 3.6864 2.61362 3.6869 2.66629 3.6869C2.71896 3.6869 2.79243 3.6854 2.88668 3.68239C2.98094 3.67939 3.06203 3.67538 3.12995 3.67037C3.19787 3.66536 3.27688 3.65685 3.36698 3.64483C3.45708 3.63281 3.53401 3.61879 3.59777 3.60276C3.66154 3.58674 3.72738 3.56571 3.7953 3.53966C3.86322 3.51362 3.91797 3.48357 3.95956 3.44952C4.00114 3.41546 4.0351 3.3754 4.06144 3.32933C4.08777 3.28325 4.10094 3.23217 4.10094 3.17608ZM3.80569 1.74579C3.80569 1.67969 3.78837 1.62109 3.75371 1.57001C3.71906 1.51893 3.67678 1.47686 3.62688 1.44381C3.57698 1.41076 3.51045 1.38271 3.42728 1.35968C3.34411 1.33664 3.26787 1.32011 3.19857 1.3101C3.12926 1.30008 3.04401 1.29207 2.94282 1.28606C2.84164 1.28005 2.76124 1.27754 2.70163 1.27855C2.64203 1.27955 2.56718 1.28055 2.47708 1.28155C2.38698 1.28255 2.33223 1.28305 2.31282 1.28305V2.20553C2.32668 2.20553 2.37451 2.20603 2.45629 2.20703C2.53807 2.20803 2.60253 2.20803 2.64965 2.20703C2.69678 2.20603 2.76609 2.20403 2.85758 2.20102C2.94906 2.19802 3.0253 2.19251 3.08629 2.1845C3.14728 2.17648 3.21866 2.16546 3.30045 2.15144C3.38223 2.13742 3.44946 2.11889 3.50213 2.09585C3.5548 2.07282 3.60609 2.04577 3.65599 2.01472C3.70589 1.98367 3.74332 1.94511 3.76827 1.89904C3.79322 1.85296 3.80569 1.80188 3.80569 1.74579Z" fill="black"/>
</svg>
