<svg width="17" height="17" viewBox="0 0 17 17" fill="none" xmlns="http://www.w3.org/2000/svg">
<path d="M7.66667 10.5833C7.66667 11.7333 9.5325 12.6666 11.8333 12.6666C14.1342 12.6666 16 11.7333 16 10.5833M1 6.41663C1 7.56663 2.86583 8.49996 5.16667 8.49996C6.105 8.49996 6.97083 8.34496 7.66667 8.08329M1 9.33329C1 10.4833 2.86583 11.4166 5.16667 11.4166C6.105 11.4166 6.97 11.2616 7.66667 11M11.8333 9.33329C9.5325 9.33329 7.66667 8.39996 7.66667 7.24996C7.66667 6.09996 9.5325 5.16663 11.8333 5.16663C14.1342 5.16663 16 6.09996 16 7.24996C16 8.39996 14.1342 9.33329 11.8333 9.33329Z" stroke="white" stroke-width="1.5" stroke-linecap="round" stroke-linejoin="round"/>
<path d="M1 3.08337V12.25C1 13.4 2.86583 14.3334 5.16667 14.3334C6.105 14.3334 6.97 14.1784 7.66667 13.9167M7.66667 13.9167V7.25004M7.66667 13.9167C7.66667 15.0667 9.5325 16 11.8333 16C14.1342 16 16 15.0667 16 13.9167V7.25004M9.33333 5.58337V3.08337" stroke="white" stroke-width="1.5" stroke-linecap="round" stroke-linejoin="round"/>
<path d="M5.16667 5.16667C2.86583 5.16667 1 4.23333 1 3.08333C1 1.93333 2.86583 1 5.16667 1C7.4675 1 9.33333 1.93333 9.33333 3.08333C9.33333 4.23333 7.4675 5.16667 5.16667 5.16667Z" stroke="white" stroke-width="1.5" stroke-linecap="round" stroke-linejoin="round"/>
</svg>
