<svg width="23" height="21" viewBox="0 0 23 21" fill="none" xmlns="http://www.w3.org/2000/svg">
<path d="M11.822 18.5974C12.6316 18.5414 13.4305 18.4156 14.2186 18.22C15.1884 18.5031 16.2117 18.5674 17.2109 18.4081C17.2506 18.4031 17.2905 18.4001 17.3305 18.3992C17.687 18.3992 18.155 18.5985 18.837 19.0186V18.3286C18.8372 18.2084 18.8704 18.0904 18.9333 17.987C18.9963 17.8836 19.0865 17.7985 19.1946 17.7406C19.4914 17.5804 19.7674 17.3934 20.0192 17.1895C21.0128 16.3797 21.574 15.3011 21.574 14.1586C21.5736 13.7808 21.5119 13.4055 21.3911 13.0464C21.6901 12.5088 21.934 11.942 22.1122 11.3551C22.6872 12.184 22.9977 13.1584 23 14.1586C23 15.711 22.2479 17.1604 20.9473 18.2188C20.7297 18.3951 20.5012 18.5582 20.263 18.7072V20.3223C20.263 20.8779 19.596 21.196 19.1257 20.8667C18.6807 20.5466 18.2201 20.2476 17.7456 19.9706C17.6092 19.8925 17.4674 19.8237 17.3213 19.7645C16.9303 19.8213 16.5324 19.85 16.1276 19.8508C14.5038 19.8508 13.003 19.3826 11.822 18.5974ZM3.2361 15.3649C1.1845 13.6961 0 11.4156 0 8.97613C0 3.9874 4.8967 0 10.8755 0C16.8544 0 21.7523 3.9874 21.7523 8.97613C21.7523 13.9649 16.8544 17.9512 10.8755 17.9512C10.2032 17.9512 9.54078 17.9015 8.88835 17.8022C8.6066 17.866 7.48075 18.5089 5.8581 19.648C5.2716 20.0613 4.4367 19.6626 4.4367 18.967V16.2117C4.01631 15.9585 3.61508 15.6762 3.2361 15.3672M8.9286 16.1042C8.9769 16.1042 9.02673 16.1079 9.0781 16.1154C9.67217 16.2113 10.2734 16.2593 10.8755 16.2587C15.9263 16.2587 19.9686 12.9669 19.9686 8.97613C19.9686 4.98537 15.9263 1.69465 10.8755 1.69465C5.82705 1.69465 1.7825 4.98649 1.7825 8.97613C1.7825 10.906 2.72665 12.7227 4.39645 14.0825C4.81812 14.4245 5.27658 14.731 5.77185 15.002C6.049 15.1532 6.22035 15.4333 6.22035 15.7357V17.325C7.50375 16.4962 8.34785 16.1042 8.92745 16.1042" fill="#666666"/>
<path d="M6.46826 10.4994C6.84951 10.4994 7.21514 10.3519 7.48473 10.0893C7.75431 9.82673 7.90576 9.47061 7.90576 9.09929C7.90576 8.72797 7.75431 8.37185 7.48473 8.10929C7.21514 7.84673 6.84951 7.69922 6.46826 7.69922C6.08701 7.69922 5.72138 7.84673 5.4518 8.10929C5.18221 8.37185 5.03076 8.72797 5.03076 9.09929C5.03076 9.47061 5.18221 9.82673 5.4518 10.0893C5.72138 10.3519 6.08701 10.4994 6.46826 10.4994ZM11.1396 10.4994C11.5208 10.4994 11.8864 10.3519 12.156 10.0893C12.4256 9.82673 12.5771 9.47061 12.5771 9.09929C12.5771 8.72797 12.4256 8.37185 12.156 8.10929C11.8864 7.84673 11.5208 7.69922 11.1396 7.69922C10.7583 7.69922 10.3927 7.84673 10.1231 8.10929C9.85351 8.37185 9.70206 8.72797 9.70206 9.09929C9.70206 9.47061 9.85351 9.82673 10.1231 10.0893C10.3927 10.3519 10.7583 10.4994 11.1396 10.4994ZM15.812 10.5005C16.1933 10.5005 16.5589 10.353 16.8285 10.0904C17.0981 9.82785 17.2495 9.47173 17.2495 9.10041C17.2495 8.72909 17.0981 8.37297 16.8285 8.11041C16.5589 7.84785 16.1933 7.70034 15.812 7.70034C15.4308 7.70034 15.0651 7.84785 14.7955 8.11041C14.526 8.37297 14.3745 8.72909 14.3745 9.10041C14.3745 9.47173 14.526 9.82785 14.7955 10.0904C15.0651 10.353 15.4308 10.5005 15.812 10.5005Z" fill="#666666"/>
</svg>
