<svg width="30" height="30" viewBox="0 0 30 30" fill="none" xmlns="http://www.w3.org/2000/svg">
<path d="M6.31579 3.1579C7.15332 3.1579 7.95654 3.4906 8.54876 4.08282C9.14098 4.67504 9.47369 5.47827 9.47369 6.31579V9.47369H6.31579C5.47827 9.47369 4.67504 9.14098 4.08282 8.54876C3.4906 7.95654 3.1579 7.15332 3.1579 6.31579C3.1579 5.47827 3.4906 4.67504 4.08282 4.08282C4.67504 3.4906 5.47827 3.1579 6.31579 3.1579ZM12.6316 9.47369V6.31579C12.6316 5.06665 12.2612 3.84555 11.5672 2.80693C10.8732 1.7683 9.8868 0.958791 8.73274 0.480764C7.57868 0.00273651 6.30878 -0.122337 5.08364 0.121359C3.8585 0.365055 2.73313 0.966575 1.84985 1.84985C0.966575 2.73313 0.365055 3.8585 0.121359 5.08364C-0.122337 6.30878 0.00273651 7.57868 0.480764 8.73274C0.958791 9.8868 1.7683 10.8732 2.80693 11.5672C3.84555 12.2612 5.06665 12.6316 6.31579 12.6316H9.47369V17.3684H6.31579C5.06665 17.3684 3.84555 17.7388 2.80693 18.4328C1.7683 19.1268 0.958791 20.1132 0.480764 21.2673C0.00273651 22.4213 -0.122337 23.6912 0.121359 24.9164C0.365055 26.1415 0.966575 27.2669 1.84985 28.1501C2.73313 29.0334 3.8585 29.6349 5.08364 29.8786C6.30878 30.1223 7.57868 29.9973 8.73274 29.5192C9.8868 29.0412 10.8732 28.2317 11.5672 27.1931C12.2612 26.1544 12.6316 24.9334 12.6316 23.6842V20.5263H17.3684V23.6842C17.3684 24.9334 17.7388 26.1544 18.4328 27.1931C19.1268 28.2317 20.1132 29.0412 21.2673 29.5192C22.4213 29.9973 23.6912 30.1223 24.9164 29.8786C26.1415 29.6349 27.2669 29.0334 28.1501 28.1501C29.0334 27.2669 29.6349 26.1415 29.8786 24.9164C30.1223 23.6912 29.9973 22.4213 29.5192 21.2673C29.0412 20.1132 28.2317 19.1268 27.1931 18.4328C26.1544 17.7388 24.9334 17.3684 23.6842 17.3684H20.5263V12.6316H23.6842C24.9334 12.6316 26.1544 12.2612 27.1931 11.5672C28.2317 10.8732 29.0412 9.8868 29.5192 8.73274C29.9973 7.57868 30.1223 6.30878 29.8786 5.08364C29.6349 3.8585 29.0334 2.73313 28.1501 1.84985C27.2669 0.966575 26.1415 0.365055 24.9164 0.121359C23.6912 -0.122337 22.4213 0.00273651 21.2673 0.480764C20.1132 0.958791 19.1268 1.7683 18.4328 2.80693C17.7388 3.84555 17.3684 5.06665 17.3684 6.31579V9.47369H12.6316ZM12.6316 12.6316H17.3684V17.3684H12.6316V12.6316ZM20.5263 9.47369V6.31579C20.5263 5.69122 20.7115 5.08067 21.0585 4.56136C21.4055 4.04205 21.8987 3.63729 22.4757 3.39828C23.0528 3.15926 23.6877 3.09673 24.3003 3.21857C24.9129 3.34042 25.4755 3.64118 25.9172 4.08282C26.3588 4.52446 26.6596 5.08714 26.7814 5.69972C26.9033 6.31229 26.8407 6.94724 26.6017 7.52427C26.3627 8.1013 25.958 8.59449 25.4386 8.94148C24.9193 9.28848 24.3088 9.47369 23.6842 9.47369H20.5263ZM20.5263 20.5263H23.6842C24.3088 20.5263 24.9193 20.7115 25.4386 21.0585C25.958 21.4055 26.3627 21.8987 26.6017 22.4757C26.8407 23.0528 26.9033 23.6877 26.7814 24.3003C26.6596 24.9129 26.3588 25.4755 25.9172 25.9172C25.4755 26.3588 24.9129 26.6596 24.3003 26.7814C23.6877 26.9033 23.0528 26.8407 22.4757 26.6017C21.8987 26.3627 21.4055 25.958 21.0585 25.4386C20.7115 24.9193 20.5263 24.3088 20.5263 23.6842V20.5263ZM9.47369 20.5263V23.6842C9.47369 24.3088 9.28848 24.9193 8.94148 25.4386C8.59449 25.958 8.1013 26.3627 7.52427 26.6017C6.94724 26.8407 6.31229 26.9033 5.69972 26.7814C5.08714 26.6596 4.52446 26.3588 4.08282 25.9172C3.64118 25.4755 3.34042 24.9129 3.21857 24.3003C3.09673 23.6877 3.15926 23.0528 3.39828 22.4757C3.63729 21.8987 4.04205 21.4055 4.56136 21.0585C5.08067 20.7115 5.69122 20.5263 6.31579 20.5263H9.47369Z" fill="#9D9D9D"/>
</svg>
