<svg width="31" height="31" viewBox="0 0 31 31" fill="none" xmlns="http://www.w3.org/2000/svg">
<path d="M13.708 3.98844V9.95763C13.708 10.4519 13.6103 10.9413 13.4206 11.3977C13.2309 11.8542 12.9529 12.2687 12.6025 12.6174C12.2521 12.9662 11.8363 13.2424 11.3788 13.4301C10.9214 13.6179 10.4313 13.7135 9.93683 13.7114H3.99533C3.50216 13.7144 3.01346 13.6179 2.55853 13.4275C2.1036 13.2372 1.6918 12.957 1.34783 12.6038C0.998596 12.2576 0.722037 11.8453 0.534371 11.3909C0.346705 10.9365 0.251712 10.4492 0.254964 9.95763V4.00382C0.254955 3.01091 0.648537 2.05843 1.34955 1.35489C2.05057 0.651356 3.00191 0.254069 3.99533 0.25H9.95222C10.4449 0.250473 10.9325 0.348619 11.387 0.538755C11.8414 0.72889 12.2536 1.00724 12.5997 1.35768C12.9499 1.70073 13.2282 2.11002 13.4185 2.56169C13.6088 3.01336 13.7072 3.49837 13.708 3.98844ZM30.2549 4.00382V9.95763C30.2469 10.9481 29.8507 11.8959 29.1514 12.5977C28.4521 13.2996 27.5054 13.6994 26.5145 13.7114H20.5422C19.5466 13.7054 18.5922 13.3138 17.8793 12.6191C17.531 12.2691 17.2552 11.8539 17.0677 11.3972C16.8801 10.9405 16.7846 10.4513 16.7865 9.95763V4.00382C16.7852 3.51116 16.8826 3.02323 17.073 2.56878C17.2633 2.11433 17.5427 1.70255 17.8947 1.35768C18.2408 1.00724 18.653 0.72889 19.1075 0.538755C19.5619 0.348619 20.0496 0.250473 20.5422 0.25H26.4991C27.4927 0.258042 28.4433 0.656114 29.146 1.35836C29.8486 2.0606 30.2468 3.01073 30.2549 4.00382ZM30.2549 20.5422V26.496C30.2469 27.4864 29.8507 28.4343 29.1514 29.1361C28.4521 29.8379 27.5054 30.2378 26.5145 30.2498H20.5422C19.5403 30.26 18.5739 29.8791 17.8486 29.1883C17.4989 28.8393 17.2221 28.4242 17.0345 27.9673C16.8469 27.5103 16.7521 27.0207 16.7557 26.5267V20.5729C16.7544 20.0803 16.8519 19.5924 17.0422 19.1379C17.2325 18.6835 17.5119 18.2717 17.8639 17.9268C18.21 17.5764 18.6222 17.298 19.0767 17.1079C19.5311 16.9177 20.0188 16.8196 20.5114 16.8191H26.4683C27.4619 16.8272 28.4126 17.2252 29.1152 17.9275C29.8178 18.6297 30.2161 19.5799 30.2241 20.5729L30.2549 20.5422ZM13.708 20.5576V26.5114C13.6959 27.5044 13.2937 28.4529 12.5882 29.1523C11.8827 29.8517 10.9305 30.2458 9.93683 30.2498H3.99533C3.50357 30.2518 3.01627 30.1565 2.56155 29.9694C2.10683 29.7822 1.69368 29.5069 1.34595 29.1594C0.99822 28.8118 0.722785 28.3989 0.535535 27.9444C0.348285 27.4899 0.252927 27.0029 0.254964 26.5114V20.5576C0.258929 19.5644 0.653309 18.6127 1.35304 17.9075C2.05276 17.2024 3.00176 16.8005 3.99533 16.7884H9.95222C10.95 16.7986 11.9047 17.1957 12.6151 17.896C13.3172 18.6039 13.7101 19.5609 13.708 20.5576Z" fill="#0D99FF"/>
</svg>
