<svg width="20" height="20" viewBox="0 0 20 20" fill="none" xmlns="http://www.w3.org/2000/svg">
<path d="M12.2872 6.68889L13.3093 7.71111L3.244 17.7778H2.22192V16.7556L12.2872 6.68889ZM16.2867 0C16.0089 0 15.7201 0.111111 15.509 0.322222L13.4759 2.35556L17.642 6.52222L19.6751 4.48889C19.7781 4.3861 19.8598 4.264 19.9156 4.12958C19.9713 3.99517 20 3.85108 20 3.70556C20 3.56004 19.9713 3.41594 19.9156 3.28153C19.8598 3.14711 19.7781 3.02502 19.6751 2.92222L17.0755 0.322222C16.8533 0.1 16.5755 0 16.2867 0ZM12.2872 3.54444L0 15.8333V20H4.1661L16.4533 7.71111L12.2872 3.54444Z" fill="black"/>
</svg>
