<svg width="6" height="11" viewBox="0 0 6 11" fill="none" xmlns="http://www.w3.org/2000/svg">
<path d="M2.99656 0C3.2063 0 3.37109 0.22 3.37109 0.5L3.37109 9.5C3.37109 9.78 3.2063 10 2.99656 10C2.78682 10 2.62203 9.78 2.62203 9.5L2.62203 0.5C2.62203 0.22 2.78682 0 2.99656 0Z" fill="#FE1019"/>
<path d="M0.374532 6.49977C0.423652 6.49897 0.472354 6.5119 0.517507 6.53773C0.562659 6.56357 0.603261 6.60173 0.636704 6.64977L2.99625 9.79977L5.35581 6.64977C5.50562 6.44977 5.73783 6.44977 5.88764 6.64977C6.03745 6.84977 6.03745 7.15977 5.88764 7.35977L3.26592 10.8598C3.11611 11.0598 2.88389 11.0598 2.73408 10.8598L0.112359 7.35977C-0.0374537 7.15977 -0.0374537 6.84977 0.112359 6.64977C0.187265 6.54977 0.284644 6.49977 0.374532 6.49977Z" fill="#FE1019"/>
</svg>
