<svg width="20" height="20" viewBox="0 0 20 20" fill="none" xmlns="http://www.w3.org/2000/svg">
<path d="M2.285 6.33848C1.70091 6.49575 1.18497 6.84121 0.81708 7.32137C0.449189 7.80153 0.249873 8.38958 0.25 8.99448V11.9945C0.25 12.7238 0.539731 13.4233 1.05546 13.939C1.57118 14.4547 2.27065 14.7445 3 14.7445H5.5C5.69891 14.7445 5.88968 14.6655 6.03033 14.5248C6.17098 14.3842 6.25 14.1934 6.25 13.9945V6.99448C6.25 6.79556 6.17098 6.6048 6.03033 6.46415C5.88968 6.32349 5.69891 6.24448 5.5 6.24448H3.815C4.244 3.77448 6.759 1.74448 10 1.74448C13.241 1.74448 15.756 3.77448 16.185 6.24448H14.5C14.3011 6.24448 14.1103 6.32349 13.9697 6.46415C13.829 6.6048 13.75 6.79556 13.75 6.99448V13.9945C13.75 14.4085 14.086 14.7445 14.5 14.7445H16.163C15.9942 15.4564 15.59 16.0905 15.016 16.5442C14.442 16.9979 13.7317 17.2446 13 17.2445H11.855C11.6809 16.8142 11.3627 16.4579 10.9547 16.2365C10.5467 16.0152 10.0745 15.9426 9.61892 16.0313C9.16333 16.12 8.75276 16.3643 8.45757 16.7225C8.16238 17.0807 8.00095 17.5303 8.00095 17.9945C8.00095 18.4586 8.16238 18.9083 8.45757 19.2665C8.75276 19.6246 9.16333 19.869 9.61892 19.9576C10.0745 20.0463 10.5467 19.9738 10.9547 19.7524C11.3627 19.5311 11.6809 19.1747 11.855 18.7445H13C15.4 18.7445 17.384 16.9645 17.705 14.6535C18.2914 14.4979 18.81 14.1528 19.1799 13.6719C19.5497 13.191 19.7502 12.6012 19.75 11.9945V8.99448C19.7501 8.38958 19.5508 7.80153 19.1829 7.32137C18.815 6.84121 18.2991 6.49575 17.715 6.33848C17.333 2.83448 13.926 0.244476 10 0.244476C6.074 0.244476 2.667 2.83448 2.285 6.33848Z" fill="#1E1E1E" fill-opacity="0.5"/>
</svg>
