<svg width="6" height="11" viewBox="0 0 6 11" fill="none" xmlns="http://www.w3.org/2000/svg">
<path d="M3.00344 11.0098C2.7937 11.0098 2.62891 10.7898 2.62891 10.5098V1.50977C2.62891 1.22977 2.7937 1.00977 3.00344 1.00977C3.21318 1.00977 3.37797 1.22977 3.37797 1.50977V10.5098C3.37797 10.7898 3.21318 11.0098 3.00344 11.0098Z" fill="#04CB2E"/>
<path d="M5.62547 4.51C5.57635 4.5108 5.52765 4.49787 5.48249 4.47203C5.43734 4.4462 5.39674 4.40804 5.3633 4.36L3.00375 1.21L0.644195 4.36C0.494382 4.56 0.262172 4.56 0.11236 4.36C-0.0374532 4.16 -0.0374532 3.85 0.11236 3.65L2.73408 0.15C2.88389 -0.05 3.11611 -0.05 3.26592 0.15L5.88764 3.65C6.03745 3.85 6.03745 4.16 5.88764 4.36C5.81273 4.46 5.71536 4.51 5.62547 4.51Z" fill="#04CB2E"/>
</svg>
