<svg width="28" height="34" viewBox="0 0 28 34" fill="none" xmlns="http://www.w3.org/2000/svg">
<path fill-rule="evenodd" clip-rule="evenodd" d="M9.80818 32.3978C11.1153 32.9657 12.5483 33.2606 14 33.2606C15.4517 33.2606 16.8847 32.9657 18.1918 32.3978L18.505 32.2613C19.3204 31.9071 20.0083 31.3534 20.4898 30.6637C20.9713 29.974 21.2269 29.1763 21.2273 28.3619V27.3481C21.2273 24.4192 23.0967 21.8087 24.9373 19.3911C26.2985 17.6011 27.0906 15.511 27.2284 13.346C27.3661 11.181 26.8442 9.02332 25.7188 7.1054C24.5935 5.18748 22.9074 3.5821 20.8424 2.46227C18.7773 1.34245 16.4115 0.750641 14 0.750641C11.5885 0.750641 9.22272 1.34245 7.15765 2.46227C5.09257 3.5821 3.40651 5.18748 2.28117 7.1054C1.15584 9.02332 0.633905 11.181 0.77163 13.346C0.909356 15.511 1.70151 17.6011 3.06273 19.3911C4.90328 21.8087 6.77273 24.4192 6.77273 27.3503V28.3619C6.77267 29.1766 7.02805 29.9748 7.50956 30.665C7.99108 31.3551 8.67922 31.9091 9.495 32.2635L9.80818 32.3978ZM16.6211 29.4733L16.9343 29.3346C17.1379 29.2459 17.3096 29.1074 17.4298 28.935C17.5499 28.7626 17.6136 28.5632 17.6136 28.3598V27.3481C17.6136 26.9798 17.6337 26.6187 17.6739 26.2649C15.2769 26.9085 12.7231 26.9085 10.3261 26.2649C10.3647 26.6187 10.3848 26.9798 10.3864 27.3481V28.3598C10.3864 28.5632 10.4501 28.7626 10.5702 28.935C10.6904 29.1074 10.8621 29.2459 11.0657 29.3346L11.3789 29.4711C12.1962 29.8264 13.0922 30.0109 14 30.0109C14.9078 30.0109 15.8038 29.8285 16.6211 29.4733ZM6.04518 17.554C6.99437 18.8019 8.19168 20.3746 9.08786 22.2074C10.5551 23.0494 12.2594 23.4968 14 23.4968C15.7406 23.4968 17.4449 23.0494 18.9121 22.2074C19.8083 20.3746 21.0056 18.8019 21.9572 17.554C22.9466 16.2521 23.5222 14.7321 23.622 13.1578C23.7217 11.5835 23.3419 10.0145 22.5233 8.61999C21.7048 7.22545 20.4786 6.05819 18.9768 5.24399C17.4751 4.42979 15.7548 3.99951 14.0012 3.99951C12.2476 3.99951 10.5273 4.42979 9.02557 5.24399C7.52384 6.05819 6.29764 7.22545 5.4791 8.61999C4.66056 10.0145 4.28069 11.5835 4.38045 13.1578C4.4802 14.7321 5.05579 16.2521 6.04518 17.554Z" fill="#1E1E1E" fill-opacity="0.5"/>
<path d="M14.0002 7.24875C13.521 7.24875 13.0614 7.41993 12.7226 7.72463C12.3837 8.02933 12.1934 8.44259 12.1934 8.87351C12.1934 9.30442 12.3837 9.71768 12.7226 10.0224C13.0614 10.3271 13.521 10.4983 14.0002 10.4983C14.6391 10.4983 15.2519 10.7265 15.7037 11.1328C16.1555 11.539 16.4093 12.0901 16.4093 12.6646C16.4093 13.0955 16.5996 13.5088 16.9385 13.8135C17.2773 14.1182 17.7369 14.2894 18.2161 14.2894C18.6953 14.2894 19.1549 14.1182 19.4937 13.8135C19.8325 13.5088 20.0229 13.0955 20.0229 12.6646C20.0229 11.2282 19.3884 9.85069 18.2589 8.83502C17.1294 7.81935 15.5975 7.24875 14.0002 7.24875Z" fill="#1E1E1E" fill-opacity="0.5"/>
</svg>
