<svg width="32" height="30" viewBox="0 0 32 30" fill="none" xmlns="http://www.w3.org/2000/svg">
<path d="M7.66667 29H24.3333M11 22V29M21 22V29M11 15V8M16 15V13.25M21 15V11.5M1 2.75C1 2.28587 1.17559 1.84075 1.48816 1.51256C1.80072 1.18437 2.22464 1 2.66667 1H29.3333C29.7754 1 30.1993 1.18437 30.5118 1.51256C30.8244 1.84075 31 2.28587 31 2.75V20.25C31 20.7141 30.8244 21.1592 30.5118 21.4874C30.1993 21.8156 29.7754 22 29.3333 22H2.66667C2.22464 22 1.80072 21.8156 1.48816 21.4874C1.17559 21.1592 1 20.7141 1 20.25V2.75Z" stroke="#1E1E1E" stroke-opacity="0.5" stroke-width="2" stroke-linecap="round" stroke-linejoin="round"/>
</svg>
