<svg width="30" height="12" viewBox="0 0 30 12" fill="none" xmlns="http://www.w3.org/2000/svg">
<g filter="url(#filter0_d_253_258)">
<path d="M5 2C5 2.26522 5.1317 2.51957 5.36612 2.70711C5.60054 2.89464 5.91848 3 6.25 3C6.58152 3 6.89946 2.89464 7.13388 2.70711C7.3683 2.51957 7.5 2.26522 7.5 2C7.5 1.73478 7.3683 1.48043 7.13388 1.29289C6.89946 1.10536 6.58152 1 6.25 1C5.91848 1 5.60054 1.10536 5.36612 1.29289C5.1317 1.48043 5 1.73478 5 2ZM13.75 2C13.75 2.26522 13.8817 2.51957 14.1161 2.70711C14.3505 2.89464 14.6685 3 15 3C15.3315 3 15.6495 2.89464 15.8839 2.70711C16.1183 2.51957 16.25 2.26522 16.25 2C16.25 1.73478 16.1183 1.48043 15.8839 1.29289C15.6495 1.10536 15.3315 1 15 1C14.6685 1 14.3505 1.10536 14.1161 1.29289C13.8817 1.48043 13.75 1.73478 13.75 2ZM22.5 2C22.5 2.26522 22.6317 2.51957 22.8661 2.70711C23.1005 2.89464 23.4185 3 23.75 3C24.0815 3 24.3995 2.89464 24.6339 2.70711C24.8683 2.51957 25 2.26522 25 2C25 1.73478 24.8683 1.48043 24.6339 1.29289C24.3995 1.10536 24.0815 1 23.75 1C23.4185 1 23.1005 1.10536 22.8661 1.29289C22.6317 1.48043 22.5 1.73478 22.5 2Z" stroke="#727272" stroke-width="2" stroke-linecap="round" stroke-linejoin="round" shape-rendering="crispEdges"/>
</g>
<defs>
<filter id="filter0_d_253_258" x="0" y="0" width="30" height="12" filterUnits="userSpaceOnUse" color-interpolation-filters="sRGB">
<feFlood flood-opacity="0" result="BackgroundImageFix"/>
<feColorMatrix in="SourceAlpha" type="matrix" values="0 0 0 0 0 0 0 0 0 0 0 0 0 0 0 0 0 0 127 0" result="hardAlpha"/>
<feOffset dy="4"/>
<feGaussianBlur stdDeviation="2"/>
<feComposite in2="hardAlpha" operator="out"/>
<feColorMatrix type="matrix" values="0 0 0 0 0 0 0 0 0 0 0 0 0 0 0 0 0 0 0.25 0"/>
<feBlend mode="normal" in2="BackgroundImageFix" result="effect1_dropShadow_253_258"/>
<feBlend mode="normal" in="SourceGraphic" in2="effect1_dropShadow_253_258" result="shape"/>
</filter>
</defs>
</svg>
