<svg width="28" height="30" viewBox="0 0 28 30" fill="none" xmlns="http://www.w3.org/2000/svg">
<path fill-rule="evenodd" clip-rule="evenodd" d="M20.7 6.66667H13.8V10H20.7V6.66667ZM20.7 11.6667H13.8V13.3333H20.7V11.6667ZM12.075 6.66667H6.9V13.3333H12.075V6.66667ZM12.075 16.6667H20.7V15H12.075V16.6667ZM17.25 20H20.7V18.3333H17.25V20ZM20.7 21.6667H6.9V23.3333H20.7V21.6667ZM15.525 18.3333H6.9V20H15.525V18.3333ZM10.35 15H6.9V16.6667H10.35V15ZM25.875 0H1.725C1.2675 0 0.828741 0.175595 0.505241 0.488155C0.18174 0.800716 0 1.22464 0 1.66667V28.3333C0 28.7754 0.18174 29.1993 0.505241 29.5118C0.828741 29.8244 1.2675 30 1.725 30H25.875C26.3325 30 26.7713 29.8244 27.0948 29.5118C27.4183 29.1993 27.6 28.7754 27.6 28.3333V1.66667C27.6 1.22464 27.4183 0.800716 27.0948 0.488155C26.7713 0.175595 26.3325 0 25.875 0ZM24.15 26.6667H3.45V3.33333H24.15V26.6667Z" fill="#1E1E1E" fill-opacity="0.5"/>
</svg>
