<svg width="30" height="15" viewBox="0 0 30 15" fill="none" xmlns="http://www.w3.org/2000/svg">
<path d="M30 0L8.05228 12.8145C6.23226 13.8715 4.70391 14.4 3.46723 14.4C2.06721 14.4 1.05179 13.7275 0.420946 12.3825C0.0251091 11.5186 -0.0915588 10.4228 0.0709429 9.09492C0.234278 7.76708 0.665949 6.35124 1.36596 4.84742C1.9493 3.63042 2.90639 2.03062 4.23724 0.0479941C3.78524 1.02241 3.45409 2.09277 3.25723 3.21562C2.90722 5.26337 3.22223 6.76719 4.20224 7.72708C4.66891 8.17503 5.31058 8.399 6.12726 8.399C6.77976 8.399 7.51477 8.25502 8.33228 7.96705L30 0Z" fill="black"/>
</svg>
