<svg width="52" height="52" viewBox="0 0 52 52" fill="none" xmlns="http://www.w3.org/2000/svg">
<path d="M31 1.55565C29.3833 1.22566 27.7167 1.059 26 1.05566C12.1925 1.05566 1 12.2354 1 26.0276C1 39.8198 12.1925 50.9995 26 50.9995C39.8075 50.9995 51 39.8198 51 26.0276C50.9967 24.316 50.83 22.651 50.5 21.0327" stroke="#AEE780" stroke-width="1.5" stroke-linecap="round" stroke-linejoin="round"/>
<path d="M26 18.5346C23.2375 18.5346 21 20.2121 21 22.282C21 24.3495 23.2375 26.0269 26 26.0269C28.7625 26.0269 31 27.7019 31 29.7718C31 31.8418 28.7625 33.5193 26 33.5193M26 18.5346C28.175 18.5346 30.03 19.5771 30.715 21.0345M26 18.5346V16.0372M26 33.5193C23.825 33.5193 21.97 32.4768 21.285 31.0193M26 33.5193V36.0167M50.9875 1L40.55 11.4348M38.49 2.30247L38.785 10.0223C38.785 11.8423 39.8725 12.9772 41.855 13.1197L49.665 13.4872" stroke="#AEE780" stroke-width="1.5" stroke-linecap="round" stroke-linejoin="round"/>
</svg>
