<svg width="20" height="20" viewBox="0 0 20 20" fill="none" xmlns="http://www.w3.org/2000/svg">
<path fill-rule="evenodd" clip-rule="evenodd" d="M7.3811 0.349431C9.34771 -0.184563 11.4305 -0.104977 13.3506 0.577533C15.2708 1.26004 16.9366 2.5129 18.125 4.16835V2.18701C18.125 1.93836 18.2238 1.69989 18.3996 1.52407C18.5754 1.34825 18.8138 1.24947 19.0625 1.24947C19.3111 1.24947 19.5496 1.34825 19.7254 1.52407C19.9012 1.69989 20 1.93836 20 2.18701V7.49974H14.6874C14.4388 7.49974 14.2003 7.40097 14.0245 7.22515C13.8487 7.04932 13.7499 6.81086 13.7499 6.5622C13.7499 6.31355 13.8487 6.07508 14.0245 5.89926C14.2003 5.72344 14.4388 5.62466 14.6874 5.62466H16.8462C15.867 4.09271 14.4024 2.93344 12.6865 2.33231C10.9706 1.73118 9.10273 1.72293 7.38163 2.30889C5.66052 2.89484 4.18566 4.04113 3.193 5.56438C2.20034 7.08763 1.74723 8.89982 1.90617 10.711C2.0651 12.5222 2.8269 14.2278 4.06968 15.5549C5.31247 16.8819 6.96442 17.7538 8.76127 18.0311C10.5581 18.3083 12.396 17.9748 13.981 17.084C15.5659 16.1932 16.8063 14.7966 17.5037 13.1175C17.549 13.0011 17.6171 12.8949 17.7039 12.8052C17.7908 12.7154 17.8948 12.644 18.0096 12.5949C18.1245 12.5459 18.248 12.5204 18.3729 12.5198C18.4978 12.5192 18.6216 12.5435 18.737 12.5914C18.8523 12.6393 18.9569 12.7098 19.0447 12.7987C19.1324 12.8876 19.2015 12.9931 19.2479 13.109C19.2943 13.225 19.3171 13.3491 19.3148 13.474C19.3126 13.5988 19.2855 13.722 19.235 13.8363C18.5835 15.4045 17.5434 16.781 16.2127 17.836C14.882 18.891 13.3046 19.5898 11.6292 19.8664C9.95373 20.1431 8.23543 19.9885 6.63625 19.4172C5.03708 18.846 3.60971 17.8769 2.48868 16.6013C1.36766 15.3258 0.589921 13.7857 0.228772 12.1264C-0.132378 10.4671 -0.0650379 8.74308 0.424443 7.11697C0.913924 5.49086 1.80942 4.01618 3.02653 2.83195C4.24363 1.64771 5.74224 0.794184 7.3811 0.349431Z" fill="black"/>
</svg>
