<svg width="19" height="12" viewBox="0 0 19 12" fill="none" xmlns="http://www.w3.org/2000/svg">
<path d="M16.3125 6.66667H1.6875C1.2325 6.66667 0.875 6.37333 0.875 6C0.875 5.62667 1.2325 5.33333 1.6875 5.33333H16.3125C16.7675 5.33333 17.125 5.62667 17.125 6C17.125 6.37333 16.7675 6.66667 16.3125 6.66667Z" fill="#1F1F2E"/>
<path d="M12.25 11.3333C12.1434 11.3344 12.0378 11.3172 11.9398 11.2827C11.8419 11.2483 11.7538 11.1974 11.6813 11.1333C11.3563 10.8667 11.3563 10.4533 11.6813 10.1867L16.8 5.98667L11.6813 1.78667C11.3563 1.52 11.3563 1.10667 11.6813 0.839999C12.0063 0.573333 12.51 0.573333 12.835 0.839999L18.5225 5.50667C18.8475 5.77333 18.8475 6.18667 18.5225 6.45333L12.835 11.12C12.6725 11.2533 12.4613 11.32 12.2663 11.32L12.25 11.3333Z" fill="#1F1F2E"/>
</svg>
