<svg width="24" height="24" viewBox="0 0 24 24" fill="none" xmlns="http://www.w3.org/2000/svg">
<path d="M1.25 1.875C1.25 1.37772 1.44754 0.900805 1.79917 0.549175C2.15081 0.197544 2.62772 0 3.125 0L18.125 0C18.6223 0 19.0992 0.197544 19.4508 0.549175C19.8025 0.900805 20 1.37772 20 1.875V18.125C20 18.6223 19.8025 19.0992 19.4508 19.4508C19.0992 19.8025 18.6223 20 18.125 20H3.125C2.62772 20 2.15081 19.8025 1.79917 19.4508C1.44754 19.0992 1.25 18.6223 1.25 18.125V16.25H0.625C0.45924 16.25 0.300269 16.1842 0.183058 16.0669C0.065848 15.9497 0 15.7908 0 15.625C0 15.4592 0.065848 15.3003 0.183058 15.1831C0.300269 15.0658 0.45924 15 0.625 15H1.25V10.625H0.625C0.45924 10.625 0.300269 10.5592 0.183058 10.4419C0.065848 10.3247 0 10.1658 0 10C0 9.83424 0.065848 9.67527 0.183058 9.55806C0.300269 9.44085 0.45924 9.375 0.625 9.375H1.25V5H0.625C0.45924 5 0.300269 4.93415 0.183058 4.81694C0.065848 4.69973 0 4.54076 0 4.375C0 4.20924 0.065848 4.05027 0.183058 3.93306C0.300269 3.81585 0.45924 3.75 0.625 3.75H1.25V1.875ZM3.125 1.25C2.95924 1.25 2.80027 1.31585 2.68306 1.43306C2.56585 1.55027 2.5 1.70924 2.5 1.875V18.125C2.5 18.2908 2.56585 18.4497 2.68306 18.5669C2.80027 18.6842 2.95924 18.75 3.125 18.75H18.125C18.2908 18.75 18.4497 18.6842 18.5669 18.5669C18.6842 18.4497 18.75 18.2908 18.75 18.125V1.875C18.75 1.70924 18.6842 1.55027 18.5669 1.43306C18.4497 1.31585 18.2908 1.25 18.125 1.25H3.125Z" fill="white"/>
<path d="M16.8752 7.5001C17.0409 7.5001 17.1999 7.56595 17.3171 7.68316C17.4343 7.80037 17.5002 7.95934 17.5002 8.1251V11.8751C17.5002 12.0409 17.4343 12.1998 17.3171 12.317C17.1999 12.4343 17.0409 12.5001 16.8752 12.5001C16.7094 12.5001 16.5504 12.4343 16.4332 12.317C16.316 12.1998 16.2502 12.0409 16.2502 11.8751V8.1251C16.2502 7.95934 16.316 7.80037 16.4332 7.68316C16.5504 7.56595 16.7094 7.5001 16.8752 7.5001ZM6.03518 5.5801C6.09324 5.5219 6.16221 5.47572 6.23814 5.44421C6.31407 5.4127 6.39547 5.39648 6.47768 5.39648C6.55989 5.39648 6.64129 5.4127 6.71722 5.44421C6.79315 5.47572 6.86212 5.5219 6.92018 5.5801L8.28268 6.9426C8.9173 6.49154 9.67659 6.24919 10.4552 6.24919C11.2338 6.24919 11.9931 6.49154 12.6277 6.9426L13.9902 5.5801C14.1075 5.46291 14.2666 5.39714 14.4325 5.39725C14.5983 5.39737 14.7574 5.46337 14.8746 5.58073C14.9917 5.69808 15.0575 5.85719 15.0574 6.02304C15.0573 6.1889 14.9913 6.34791 14.8739 6.4651L13.5114 7.8276C14.4364 9.12385 14.4364 10.8776 13.5114 12.1726L14.8739 13.5351C14.9913 13.6523 15.0573 13.8113 15.0574 13.9772C15.0575 14.143 14.9917 14.3021 14.8746 14.4195C14.7574 14.5368 14.5983 14.6028 14.4325 14.6029C14.2666 14.6031 14.1075 14.5373 13.9902 14.4201L12.6277 13.0576C11.9931 13.5087 11.2338 13.751 10.4552 13.751C9.67659 13.751 8.9173 13.5087 8.28268 13.0576L6.92018 14.4201C6.86207 14.4782 6.79308 14.5243 6.71716 14.5558C6.64123 14.5872 6.55986 14.6034 6.47768 14.6034C6.3955 14.6034 6.31412 14.5872 6.2382 14.5558C6.16228 14.5243 6.09329 14.4782 6.03518 14.4201C5.97707 14.362 5.93097 14.293 5.89953 14.2171C5.86808 14.1412 5.85189 14.0598 5.85189 13.9776C5.85189 13.8954 5.86808 13.814 5.89953 13.7381C5.93097 13.6622 5.97707 13.5932 6.03518 13.5351L7.39768 12.1726C6.94662 11.538 6.70427 10.7787 6.70427 10.0001C6.70427 9.22151 6.94662 8.46222 7.39768 7.8276L6.03518 6.4651C5.97698 6.40704 5.9308 6.33807 5.89929 6.26214C5.86778 6.18621 5.85156 6.10481 5.85156 6.0226C5.85156 5.94039 5.86778 5.85899 5.89929 5.78306C5.9308 5.70713 5.97698 5.63816 6.03518 5.5801ZM8.68768 8.2326C8.4489 8.46322 8.25845 8.73908 8.12743 9.04409C7.9964 9.3491 7.92744 9.67715 7.92455 10.0091C7.92167 10.341 7.98492 10.6702 8.11063 10.9775C8.23633 11.2847 8.42196 11.5639 8.65669 11.7986C8.89142 12.0333 9.17055 12.219 9.47779 12.3447C9.78504 12.4704 10.1142 12.5336 10.4462 12.5307C10.7781 12.5278 11.1062 12.4589 11.4112 12.3279C11.7162 12.1968 11.9921 12.0064 12.2227 11.7676C12.6781 11.2961 12.9301 10.6646 12.9244 10.0091C12.9187 9.35361 12.6557 8.72658 12.1922 8.26306C11.7287 7.79954 11.1017 7.53661 10.4462 7.53092C9.79069 7.52522 9.15919 7.77721 8.68768 8.2326Z" fill="white"/>
</svg>
