<svg width="21" height="22" viewBox="0 0 21 22" fill="none" xmlns="http://www.w3.org/2000/svg">
<path fill-rule="evenodd" clip-rule="evenodd" d="M10.8219 7.12695C9.84482 7.12695 8.90771 7.51511 8.21678 8.20604C7.52586 8.89697 7.1377 9.83407 7.1377 10.8112C7.1377 11.7883 7.52586 12.7254 8.21678 13.4163C8.90771 14.1073 9.84482 14.4954 10.8219 14.4954C11.7991 14.4954 12.7362 14.1073 13.4271 13.4163C14.118 12.7254 14.5062 11.7883 14.5062 10.8112C14.5062 9.83407 14.118 8.89697 13.4271 8.20604C12.7362 7.51511 11.7991 7.12695 10.8219 7.12695ZM8.61139 10.8112C8.61139 10.2249 8.84429 9.66266 9.25885 9.2481C9.6734 8.83355 10.2357 8.60065 10.8219 8.60065C11.4082 8.60065 11.9705 8.83355 12.385 9.2481C12.7996 9.66266 13.0325 10.2249 13.0325 10.8112C13.0325 11.3975 12.7996 11.9597 12.385 12.3743C11.9705 12.7888 11.4082 13.0217 10.8219 13.0217C10.2357 13.0217 9.6734 12.7888 9.25885 12.3743C8.84429 11.9597 8.61139 11.3975 8.61139 10.8112Z" fill="black"/>
<path fill-rule="evenodd" clip-rule="evenodd" d="M10.7967 0.25C10.3595 0.25 9.99504 0.25 9.69637 0.269649C9.39103 0.281946 9.08987 0.345033 8.80527 0.456318C8.47737 0.591986 8.17941 0.790919 7.92841 1.04176C7.6774 1.29259 7.47827 1.59042 7.34238 1.91822C7.19992 2.26209 7.16161 2.6256 7.14589 3.02055C7.14413 3.16495 7.10582 3.30656 7.03452 3.43215C6.96322 3.55774 6.86126 3.66321 6.73817 3.73873C6.61126 3.80782 6.4689 3.84361 6.32441 3.84275C6.17991 3.84189 6.03799 3.80441 5.91191 3.73382C5.56216 3.54912 5.22812 3.40076 4.85871 3.35164C4.50694 3.30537 4.14949 3.32884 3.80678 3.42071C3.46408 3.51258 3.14282 3.67106 2.86136 3.88708C2.62301 4.07815 2.41815 4.30758 2.25518 4.56597C2.08816 4.81551 1.90542 5.13088 1.68732 5.50913L1.66276 5.55236C1.44367 5.93061 1.26191 6.24598 1.13026 6.51518C0.992715 6.79616 0.884644 7.07322 0.845345 7.37974C0.751619 8.09006 0.943867 8.80851 1.37981 9.37709C1.60676 9.67282 1.90248 9.88798 2.23652 10.0982C2.36093 10.172 2.46459 10.2761 2.53779 10.4009C2.61098 10.5256 2.65133 10.6669 2.65504 10.8115C2.65133 10.9561 2.61098 11.0974 2.53779 11.2221C2.46459 11.3469 2.36093 11.451 2.23652 11.5248C1.90248 11.735 1.60774 11.9502 1.37981 12.2459C1.16378 12.5274 1.0053 12.8486 0.913433 13.1913C0.821562 13.534 0.798092 13.8915 0.844363 14.2432C0.884644 14.5498 0.991733 14.8268 1.12928 15.1078C1.26191 15.377 1.44367 15.6924 1.66276 16.0706L1.68732 16.1139C1.90542 16.4921 2.08816 16.8075 2.25518 17.057C2.42908 17.3154 2.61575 17.5483 2.86136 17.7349C3.14275 17.9511 3.46397 18.1098 3.80668 18.2018C4.14939 18.2939 4.50687 18.3175 4.85871 18.2713C5.22812 18.2222 5.56216 18.0749 5.91191 17.8892C6.03787 17.8187 6.17961 17.7814 6.32392 17.7805C6.46822 17.7796 6.61039 17.8153 6.73718 17.8843C6.86128 17.9588 6.96414 18.064 7.03588 18.1898C7.10762 18.3156 7.14584 18.4577 7.14687 18.6024C7.16161 18.9974 7.19993 19.3609 7.34336 19.7048C7.47903 20.0327 7.67797 20.3306 7.9288 20.5816C8.17964 20.8326 8.47747 21.0318 8.80527 21.1676C9.09019 21.2855 9.38493 21.3317 9.69637 21.3524C9.99504 21.373 10.3595 21.373 10.7967 21.373H10.8459C11.283 21.373 11.6475 21.373 11.9462 21.3533C12.2586 21.3317 12.5524 21.2855 12.8373 21.1667C13.1652 21.031 13.4632 20.8321 13.7142 20.5812C13.9652 20.3304 14.1643 20.0326 14.3002 19.7048C14.4427 19.3609 14.481 18.9974 14.4967 18.6024C14.4983 18.4579 14.5365 18.3161 14.6078 18.1903C14.6791 18.0645 14.7812 17.9589 14.9044 17.8833C15.0314 17.8143 15.1738 17.7787 15.3183 17.7797C15.4628 17.7808 15.6047 17.8184 15.7307 17.8892C16.0804 18.0739 16.4145 18.2222 16.7839 18.2704C17.4942 18.3641 18.2126 18.1718 18.7812 17.7359C19.0268 17.5473 19.2135 17.3154 19.3874 17.057C19.5544 16.8075 19.7372 16.4921 19.9553 16.1139L19.9798 16.0706C20.1989 15.6924 20.3807 15.377 20.5123 15.1078C20.6499 14.8268 20.7579 14.5488 20.7972 14.2432C20.891 13.5329 20.6987 12.8145 20.2628 12.2459C20.0358 11.9502 19.7401 11.735 19.4061 11.5248C19.2817 11.451 19.178 11.3469 19.1048 11.2221C19.0316 11.0974 18.9912 10.9561 18.9875 10.8115C18.9875 10.5384 19.1369 10.2672 19.4061 10.0982C19.7401 9.88798 20.0348 9.67282 20.2628 9.37709C20.4788 9.09563 20.6373 8.77438 20.7291 8.43167C20.821 8.08897 20.8445 7.73152 20.7982 7.37974C20.7519 7.07773 20.6556 6.78554 20.5133 6.51518C20.3455 6.18878 20.1676 5.86769 19.9798 5.55236L19.9553 5.50913C19.7758 5.18893 19.5864 4.87439 19.3874 4.56597C19.2243 4.30793 19.0195 4.07884 18.7812 3.88807C18.4998 3.67187 18.1786 3.51322 17.8359 3.42117C17.4932 3.32913 17.1357 3.30551 16.7839 3.35164C16.4145 3.40076 16.0804 3.54813 15.7307 3.73382C15.6047 3.80424 15.463 3.84162 15.3187 3.84248C15.1744 3.84333 15.0322 3.80764 14.9054 3.73873C14.7819 3.66345 14.6796 3.55808 14.6079 3.43247C14.5363 3.30687 14.4977 3.16514 14.4957 3.02055C14.481 2.6256 14.4427 2.26209 14.2992 1.91822C14.1635 1.59033 13.9646 1.29237 13.7138 1.04136C13.4629 0.790357 13.1651 0.591223 12.8373 0.455335C12.5524 0.337439 12.2577 0.291264 11.9462 0.270632C11.6475 0.25 11.283 0.25 10.8459 0.25H10.7967ZM9.36921 1.81703C9.44486 1.78559 9.5598 1.7571 9.79658 1.7404C10.0392 1.7237 10.3536 1.7237 10.8213 1.7237C11.2889 1.7237 11.6033 1.7237 11.846 1.7404C12.0828 1.7571 12.1977 1.78559 12.2734 1.81703C12.575 1.9418 12.8137 2.18054 12.9385 2.48216C12.9778 2.57648 13.0102 2.72483 13.023 3.07557C13.0525 3.85368 13.4543 4.6033 14.1676 5.01495C14.8808 5.4266 15.7307 5.40008 16.4194 5.03657C16.7298 4.8725 16.8743 4.82632 16.9764 4.81355C17.2992 4.77089 17.6258 4.85818 17.8842 5.05622C17.9491 5.10632 18.0316 5.1918 18.1642 5.38829C18.3008 5.59068 18.458 5.86282 18.6918 6.26759C18.9256 6.67237 19.0818 6.94549 19.1889 7.1636C19.2941 7.3768 19.3265 7.49076 19.3363 7.57231C19.379 7.89511 19.2917 8.22164 19.0936 8.4801C19.0308 8.56165 18.9188 8.66382 18.6221 8.85049C17.9618 9.26509 17.5138 9.98819 17.5138 10.8115C17.5138 11.6348 17.9618 12.3579 18.6221 12.7725C18.9188 12.9592 19.0308 13.0613 19.0936 13.1429C19.2921 13.4013 19.3786 13.7274 19.3363 14.0507C19.3265 14.1322 19.2931 14.2472 19.1889 14.4594C19.0818 14.6785 18.9256 14.9506 18.6918 15.3554C18.458 15.7602 18.2998 16.0323 18.1642 16.2347C18.0316 16.4312 17.9491 16.5167 17.8842 16.5668C17.6258 16.7648 17.2992 16.8521 16.9764 16.8094C16.8743 16.7967 16.7308 16.7505 16.4194 16.5864C15.7316 16.2229 14.8808 16.1954 14.1676 16.607C13.4543 17.0187 13.0525 17.7693 13.023 18.5474C13.0102 18.8982 12.9778 19.0465 12.9385 19.1408C12.8768 19.29 12.7863 19.4255 12.6721 19.5396C12.558 19.6537 12.4225 19.7442 12.2734 19.806C12.1977 19.8374 12.0828 19.8659 11.846 19.8826C11.6033 19.8993 11.2889 19.8993 10.8213 19.8993C10.3536 19.8993 10.0392 19.8993 9.79658 19.8826C9.5598 19.8659 9.44486 19.8374 9.36921 19.806C9.22007 19.7442 9.08457 19.6537 8.97044 19.5396C8.85631 19.4255 8.7658 19.29 8.70408 19.1408C8.66478 19.0465 8.63236 18.8982 8.61959 18.5474C8.59011 17.7693 8.18828 17.0197 7.47502 16.608C6.76175 16.1964 5.91191 16.2229 5.22321 16.5864C4.91275 16.7505 4.76833 16.7967 4.66615 16.8094C4.34335 16.8521 4.01682 16.7648 3.75835 16.5668C3.69351 16.5167 3.61098 16.4312 3.47835 16.2347C3.29353 15.9471 3.11759 15.6538 2.95077 15.3554C2.71694 14.9506 2.56073 14.6775 2.45364 14.4594C2.34852 14.2462 2.31609 14.1322 2.30627 14.0507C2.26362 13.7279 2.3509 13.4013 2.54894 13.1429C2.61182 13.0613 2.72382 12.9592 3.02052 12.7725C3.68074 12.3579 4.12874 11.6348 4.12874 10.8115C4.12874 9.98819 3.68074 9.26509 3.02052 8.85049C2.72382 8.66382 2.61182 8.56165 2.54894 8.4801C2.3509 8.22164 2.26362 7.89511 2.30627 7.57231C2.31609 7.49076 2.3495 7.37581 2.45364 7.1636C2.56073 6.94451 2.71694 6.67237 2.95077 6.26759C3.18459 5.86282 3.34277 5.59068 3.47835 5.38829C3.61098 5.1918 3.69351 5.10632 3.75835 5.05622C4.01682 4.85818 4.34335 4.77089 4.66615 4.81355C4.76833 4.82632 4.91177 4.8725 5.22321 5.03657C5.91093 5.40008 6.76175 5.42759 7.47502 5.01495C8.18828 4.6033 8.59011 3.85368 8.61959 3.07557C8.63236 2.72483 8.66478 2.57648 8.70408 2.48216C8.82885 2.18054 9.06759 1.9418 9.36921 1.81703Z" fill="black"/>
</svg>
