<svg width="31" height="30" viewBox="0 0 31 30" fill="none" xmlns="http://www.w3.org/2000/svg">
<path d="M11.8457 29.9944L11.2487 25.1944C10.9253 25.0694 10.6208 24.9194 10.3353 24.7444C10.0497 24.5694 9.7696 24.3819 9.49497 24.1819L5.05467 26.0569L0.950195 18.9319L4.79348 16.0069C4.7686 15.8319 4.75617 15.6634 4.75617 15.5014V14.4889C4.75617 14.3259 4.7686 14.1569 4.79348 13.9819L0.950195 11.0569L5.05467 3.93195L9.49497 5.80695C9.7686 5.60695 10.0547 5.41945 10.3532 5.24445C10.6517 5.06945 10.9502 4.91945 11.2487 4.79445L11.8457 -0.0055542H20.0547L20.6517 4.79445C20.9751 4.91945 21.28 5.06945 21.5666 5.24445C21.8532 5.41945 22.1328 5.60695 22.4054 5.80695L26.8457 3.93195L30.9502 11.0569L27.1069 13.9819C27.1318 14.1569 27.1442 14.3259 27.1442 14.4889V15.4999C27.1442 15.6629 27.1194 15.8319 27.0696 16.0069L30.9129 18.9319L26.8084 26.0569L22.4054 24.1819C22.1318 24.3819 21.8457 24.5694 21.5472 24.7444C21.2487 24.9194 20.9502 25.0694 20.6517 25.1944L20.0547 29.9944H11.8457ZM14.4577 26.9944H17.4054L17.9278 23.0194C18.699 22.8194 19.4144 22.5259 20.0741 22.1389C20.7338 21.7519 21.3368 21.2829 21.883 20.7319L25.5771 22.2694L27.0323 19.7194L23.8233 17.2819C23.9477 16.9319 24.0348 16.5634 24.0845 16.1764C24.1343 15.7894 24.1592 15.3954 24.1592 14.9944C24.1592 14.5934 24.1343 14.1999 24.0845 13.8139C24.0348 13.4279 23.9477 13.0589 23.8233 12.7069L27.0323 10.2694L25.5771 7.71945L21.883 9.29445C21.3358 8.71945 20.7328 8.23845 20.0741 7.85145C19.4154 7.46445 18.6999 7.17045 17.9278 6.96945L17.4427 2.99445H14.495L13.9726 6.96945C13.2014 7.16945 12.4865 7.46345 11.8278 7.85145C11.1691 8.23945 10.5656 8.70795 10.0174 9.25695L6.32333 7.71945L4.86811 10.2694L8.07706 12.6694C7.95268 13.0444 7.86562 13.4194 7.81587 13.7944C7.76612 14.1694 7.74124 14.5694 7.74124 14.9944C7.74124 15.3944 7.76612 15.7819 7.81587 16.1569C7.86562 16.5319 7.95268 16.9069 8.07706 17.2819L4.86811 19.7194L6.32333 22.2694L10.0174 20.6944C10.5646 21.2694 11.1681 21.7509 11.8278 22.1389C12.4875 22.5269 13.2024 22.8204 13.9726 23.0194L14.4577 26.9944ZM16.0248 20.2444C17.4676 20.2444 18.699 19.7319 19.7189 18.7069C20.7388 17.6819 21.2487 16.4444 21.2487 14.9944C21.2487 13.5444 20.7388 12.3069 19.7189 11.2819C18.699 10.2569 17.4676 9.74445 16.0248 9.74445C14.5572 9.74445 13.3194 10.2569 12.3114 11.2819C11.3034 12.3069 10.7999 13.5444 10.8009 14.9944C10.8019 16.4444 11.3059 17.6819 12.3129 18.7069C13.3198 19.7319 14.5572 20.2444 16.0248 20.2444Z" fill="#1E1E1E" fill-opacity="0.5"/>
</svg>
