<svg width="30" height="30" viewBox="0 0 30 30" fill="none" xmlns="http://www.w3.org/2000/svg">
<path d="M20.4628 8.30233C20.4628 8.14884 20.3372 8.02326 20.1837 8.02326H18.2825C18.1779 8.02326 18.0802 8.08256 18.0349 8.17674L15.0802 14.0651H14.9651L12.0105 8.17674C11.9873 8.13083 11.952 8.09219 11.9083 8.06511C11.8646 8.03802 11.8142 8.02354 11.7628 8.02326H9.8198C9.77445 8.02326 9.7291 8.03372 9.68724 8.05814C9.55119 8.1314 9.50236 8.30233 9.57561 8.43488L13.2 15.1186H11.2116C11.0582 15.1186 10.9326 15.2442 10.9326 15.3977V16.343C10.9326 16.4965 11.0582 16.6221 11.2116 16.6221H13.8628V17.9826H11.2116C11.0582 17.9826 10.9326 18.1081 10.9326 18.2616V19.207C10.9326 19.3605 11.0582 19.486 11.2116 19.486H13.8628V21.6977C13.8628 21.8512 13.9884 21.9767 14.1419 21.9767H15.8826C16.036 21.9767 16.1616 21.8512 16.1616 21.6977V19.4826H18.8232C18.9767 19.4826 19.1023 19.357 19.1023 19.2035V18.2581C19.1023 18.1047 18.9767 17.9791 18.8232 17.9791H16.1616V16.6186H18.8232C18.9767 16.6186 19.1023 16.493 19.1023 16.3395V15.3942C19.1023 15.2407 18.9767 15.1151 18.8232 15.1151H16.8139L20.4314 8.4314C20.4488 8.39302 20.4628 8.34767 20.4628 8.30233ZM2.64775 14.7279C2.71327 11.5486 4.0072 8.51821 6.25819 6.27209C7.3919 5.13837 8.7105 4.24535 10.1791 3.62442C11.7 2.98256 13.3151 2.65465 14.9791 2.65465C16.6465 2.65465 18.2616 2.97907 19.779 3.62442C21.2476 4.24535 22.5662 5.13837 23.7 6.27209C24.0488 6.62093 24.3732 6.98721 24.6732 7.36744L22.929 8.7314C22.8875 8.76354 22.8558 8.80676 22.8378 8.85608C22.8197 8.9054 22.8159 8.95882 22.8268 9.01021C22.8378 9.06159 22.863 9.10884 22.8996 9.14653C22.9361 9.18422 22.9826 9.21081 23.0337 9.22326L28.5034 10.5593C28.6778 10.6012 28.8488 10.4686 28.8488 10.2907L28.8767 4.65698C28.8767 4.42326 28.6081 4.2907 28.4267 4.43721L26.7592 5.74186C24.0244 2.24302 19.7651 0 14.9826 0C6.80237 0 0.150086 6.56163 8.72297e-05 14.714C-0.000843829 14.7512 0.00568646 14.7882 0.0192935 14.8229C0.0329005 14.8576 0.0533089 14.8892 0.0793161 14.9158C0.105323 14.9425 0.136403 14.9637 0.170724 14.9781C0.205045 14.9926 0.241913 15 0.279155 15H2.37217C2.52217 15 2.64426 14.8779 2.64775 14.7279ZM29.7208 15H27.6278C27.4778 15 27.3523 15.1221 27.3488 15.2721C27.2832 18.4514 25.9893 21.4818 23.7383 23.7279C22.615 24.8559 21.2834 25.7551 19.8174 26.3756C18.2965 27.0174 16.6814 27.3454 15.0174 27.3454C13.3535 27.3454 11.7349 27.0209 10.2175 26.3756C8.75148 25.7551 7.41988 24.8559 6.29656 23.7279C5.94773 23.3791 5.62331 23.0128 5.32331 22.6326L7.064 21.2686C7.10555 21.2365 7.13718 21.1932 7.15526 21.1439C7.17334 21.0946 7.17714 21.0412 7.1662 20.9898C7.15527 20.9384 7.13006 20.8912 7.09347 20.8535C7.05687 20.8158 7.01039 20.7892 6.95935 20.7767L1.48961 19.4407C1.3152 19.3988 1.14427 19.5314 1.14427 19.7093L1.11636 25.35C1.11636 25.5837 1.38496 25.7163 1.56636 25.5698L3.23379 24.2651C5.97563 27.757 10.2349 30 15.0174 30C23.1976 30 29.8499 23.4384 29.9999 15.286C30.0008 15.2488 29.9943 15.2118 29.9807 15.1771C29.9671 15.1424 29.9467 15.1108 29.9207 15.0842C29.8947 15.0575 29.8636 15.0363 29.8293 15.0219C29.795 15.0074 29.7581 15 29.7208 15Z" fill="#367C21"/>
</svg>
