<svg width="62" height="20" viewBox="0 0 62 20" fill="none" xmlns="http://www.w3.org/2000/svg">
<path d="M23.5393 0.356084L15.4225 19.6981H10.1267L6.13283 4.2601C5.89 3.31054 5.68075 2.9622 4.94192 2.56225C3.73808 1.90943 1.74892 1.2979 0 0.916012L0.118833 0.356084H8.64383C9.20092 0.355526 9.73986 0.553903 10.1634 0.915404C10.5869 1.27691 10.8671 1.77772 10.9533 2.32744L13.0639 13.5208L18.2771 0.356084H23.5393ZM44.2912 13.3841C44.3119 8.27764 37.2233 7.99639 37.2723 5.71539C37.2878 5.02129 37.9492 4.28332 39.3958 4.09496C41.0912 3.93413 42.7987 4.23367 44.3377 4.96194L45.2161 0.859244C43.7178 0.29622 42.1308 0.00522914 40.5299 0C35.5777 0 32.0927 2.63192 32.0617 6.39659C32.0307 9.18075 34.5495 10.7315 36.4482 11.6604C38.4012 12.6074 39.0574 13.2164 39.0471 14.0627C39.0342 15.3632 37.4919 15.9334 36.0504 15.9566C33.5317 15.9954 32.0721 15.278 30.9044 14.7362L29.9977 18.973C31.1679 19.5097 33.3276 19.9794 35.5673 20C40.8296 20 44.2732 17.4042 44.2912 13.3841ZM57.3655 19.6981H62L57.9571 0.356084H53.6791C53.2218 0.350792 52.7735 0.483401 52.3928 0.736587C52.0121 0.989772 51.7167 1.35176 51.5452 1.77526L44.0303 19.6981H49.29L50.3363 16.8082H56.7636L57.3655 19.6981ZM51.7777 12.8448L54.4127 5.58122L55.9317 12.8448H51.7777ZM30.6978 0.356084L26.5567 19.6981H21.545L25.6912 0.356084H30.6978Z" fill="white"/>
</svg>
