<svg width="100" height="32" viewBox="0 0 100 32" fill="none" xmlns="http://www.w3.org/2000/svg">
<path d="M37.9667 0.569735L24.875 31.517H16.3333L9.89167 6.81615C9.5 5.29686 9.1625 4.73952 7.97083 4.0996C6.02917 3.05509 2.82083 2.07664 0 1.46562L0.191667 0.569735H13.9417C14.8402 0.568842 15.7095 0.886244 16.3925 1.46465C17.0756 2.04305 17.5275 2.84435 17.6667 3.72391L21.0708 21.6333L29.4792 0.569735H37.9667ZM71.4375 21.4145C71.4708 13.2442 60.0375 12.7942 60.1167 9.14463C60.1417 8.03406 61.2083 6.85331 63.5417 6.55193C66.2762 6.2946 69.0301 6.77387 71.5125 7.93911L72.9292 1.37479C70.5125 0.473952 67.9528 0.00836663 65.3708 0C57.3833 0 51.7625 4.21107 51.7125 10.2346C51.6625 14.6892 55.725 17.1704 58.7875 18.6567C61.9375 20.1718 62.9958 21.1462 62.9792 22.5003C62.9583 24.5811 60.4708 25.4935 58.1458 25.5306C54.0833 25.5926 51.7292 24.4448 49.8458 23.5779L48.3833 30.3569C50.2708 31.2156 53.7542 31.967 57.3667 32C65.8542 32 71.4083 27.8467 71.4375 21.4145ZM92.525 31.517H100L93.4792 0.569735H86.5792C85.8415 0.561268 85.1185 0.773442 84.5045 1.17854C83.8905 1.58364 83.4141 2.16282 83.1375 2.84041L71.0167 31.517H79.5L81.1875 26.893H91.5542L92.525 31.517ZM83.5125 20.5517L87.7625 8.92994L90.2125 20.5517H83.5125ZM49.5125 0.569735L42.8333 31.517H34.75L41.4375 0.569735H49.5125Z" fill="white"/>
</svg>
