<svg width="22" height="21" viewBox="0 0 22 21" fill="none" xmlns="http://www.w3.org/2000/svg">
<path d="M18.8 20.6L14.6 16.45C14.0167 16.6333 13.4293 16.771 12.838 16.863C12.2467 16.955 11.634 17.0007 11 17C8.48333 17 6.24167 16.3043 4.275 14.913C2.30833 13.5217 0.883333 11.7173 0 9.5C0.35 8.61667 0.791667 7.79567 1.325 7.037C1.85833 6.27834 2.46667 5.59934 3.15 5L0.4 2.2L1.8 0.800003L20.2 19.2L18.8 20.6ZM11 14C11.1833 14 11.3543 13.9917 11.513 13.975C11.6717 13.9583 11.8423 13.925 12.025 13.875L6.625 8.475C6.575 8.65834 6.54167 8.82934 6.525 8.988C6.50833 9.14667 6.5 9.31734 6.5 9.5C6.5 10.75 6.93767 11.8127 7.813 12.688C8.68833 13.5633 9.75067 14.0007 11 14ZM18.3 14.45L15.125 11.3C15.2417 11.0167 15.3333 10.7293 15.4 10.438C15.4667 10.1467 15.5 9.834 15.5 9.5C15.5 8.25 15.0627 7.18767 14.188 6.313C13.3133 5.43834 12.2507 5.00067 11 5C10.6667 5 10.3543 5.03334 10.063 5.1C9.77167 5.16667 9.484 5.26667 9.2 5.4L6.65 2.85C7.33333 2.56667 8.03333 2.35434 8.75 2.213C9.46667 2.07167 10.2167 2.00067 11 2C13.5167 2 15.7583 2.696 17.725 4.088C19.6917 5.48 21.1167 7.284 22 9.5C21.6167 10.4833 21.1123 11.396 20.487 12.238C19.8617 13.08 19.1327 13.8173 18.3 14.45ZM13.675 9.85L10.675 6.85C11.1417 6.76667 11.571 6.80434 11.963 6.963C12.355 7.12167 12.6923 7.35067 12.975 7.65C13.2577 7.94934 13.462 8.29534 13.588 8.688C13.714 9.08067 13.743 9.468 13.675 9.85Z" fill="#666666"/>
</svg>
