<svg width="33" height="30" viewBox="0 0 33 30" fill="none" xmlns="http://www.w3.org/2000/svg">
<path d="M29.7 6.66667V3.33333C29.7 1.495 28.2199 0 26.4 0H4.95C2.2209 0 0 2.24333 0 5V25C0 28.6683 2.9601 30 4.95 30H29.7C31.5199 30 33 28.505 33 26.6667V10C33 8.16167 31.5199 6.66667 29.7 6.66667ZM26.4 21.6667H23.1V15H26.4V21.6667ZM4.95 6.66667C4.52516 6.64747 4.12402 6.46349 3.83011 6.15303C3.53619 5.84257 3.37216 5.42956 3.37216 5C3.37216 4.57044 3.53619 4.15743 3.83011 3.84697C4.12402 3.53651 4.52516 3.35253 4.95 3.33333H26.4V6.66667H4.95Z" fill="#367C21"/>
</svg>
